<svg width="70" height="57" viewBox="0 0 70 57" fill="none" xmlns="http://www.w3.org/2000/svg">
<path d="M69.8137 16.661C69.3716 15.2481 67.9673 14.3022 65.6319 13.8548C48.901 10.6561 34.6032 10.346 22.1793 12.9442C24.851 11.5902 27.4329 10.3185 29.9286 9.16856L30.1046 9.08614L30.4567 8.72506C31.9667 5.51458 32.2874 3.50509 31.4933 2.21384C30.7032 0.926507 29.0328 0.718493 27.6676 0.68317C17.9388 0.369187 10.8897 1.77426 3.36334 5.52636C0.472495 6.95891 -0.611083 11.0132 0.421641 13.4152C1.08665 14.9616 2.53403 15.5424 4.20047 14.9184C6.7862 13.9607 10.0721 12.8108 13.9761 11.7864C9.91175 14.7535 7.40427 17.391 6.33633 19.8008C5.59309 21.3668 5.80041 23.0859 6.8879 24.3143C8.1436 25.7312 10.1934 26.108 12.3762 25.3191C16.2294 23.9297 20.2938 22.8425 24.4716 22.0811C24.4012 22.2891 24.3308 22.5128 24.2643 22.7523C19.4175 24.5537 15.7991 26.5358 13.2094 28.8121C11.1009 30.5312 10.9797 32.8547 11.8051 34.4089C12.6774 36.0534 14.8602 37.3014 17.755 36.3752C19.3314 35.8728 20.947 35.4254 22.5939 35.029C19.8595 36.3477 18.021 37.6194 17.0196 38.8674C16.4406 39.3502 16.0064 39.9232 15.7169 40.5433L15.3257 42.0661C15.2788 42.7962 15.4235 43.534 15.7717 44.2326C16.4602 45.6024 17.9897 46.7563 20.0747 46.7563C20.5793 46.7563 21.1192 46.6895 21.6825 46.5404C31.5481 43.9343 42.0318 43.5379 53.736 45.3237L54.2641 45.4022L54.5262 44.9352C54.8509 44.3504 55.2343 43.7538 55.602 43.1769C56.8498 41.2184 58.0312 39.3698 57.3114 37.7607C56.8107 36.6382 55.5237 35.9513 53.2666 35.5942C52.1557 35.4175 51.0642 35.2606 49.9963 35.1232C51.5219 35.0525 52.9693 34.9937 54.268 34.9387C56.6582 34.8406 58.5476 34.7621 59.4786 34.6679L59.8893 34.6287L60.081 34.2597C60.4527 33.5572 60.9338 32.8507 61.3993 32.1678C62.569 30.4488 63.676 28.8278 62.9993 27.2893C62.4007 25.9313 60.5739 25.0993 57.0689 24.6008C56.0127 24.4517 54.9917 24.3182 53.9981 24.1927C56.8733 24.1024 59.5999 24.0357 61.7162 23.9807C64.0242 23.9258 65.5498 23.8865 65.9762 23.8512L66.2617 23.8277L66.4612 23.6236C69.2777 20.7388 70.3731 18.4625 69.8098 16.661H69.8137Z" fill="white"/>
<path d="M27.9726 46.3049C26.6113 46.1401 25.2969 46.5247 24.2603 47.3842C23.2197 48.2477 22.5938 49.4801 22.4921 50.8577C22.2887 53.6796 24.3933 56.2268 27.1707 56.5408C27.378 56.5643 27.5853 56.5761 27.7887 56.5761C28.9349 56.5761 30.0263 56.1875 30.9104 55.4575C31.9509 54.598 32.5768 53.3656 32.6746 51.9919C32.878 49.17 30.7695 46.6228 27.9765 46.3088L27.9726 46.3049Z" fill="white"/>
<path d="M45.869 45.8498C44.5038 45.685 43.1738 46.0696 42.1372 46.9331C41.0966 47.7926 40.4707 49.025 40.3729 50.3987C40.1695 53.2206 42.2819 55.7717 45.0671 56.0818C45.2744 56.1053 45.4779 56.1171 45.6813 56.1171C46.8235 56.1171 47.911 55.7285 48.799 54.9985C49.8435 54.1351 50.4733 52.8948 50.5711 51.5133C50.7706 48.7032 48.6621 46.1638 45.869 45.8498Z" fill="white"/>
<path fill-rule="evenodd" clip-rule="evenodd" d="M23.8125 24.8856C35.3602 22.2913 40.5199 24.2498 50.5577 23.9005C50.8667 21.9734 50.6047 20.8234 50.3347 19.8108C45.6797 19.3045 36.9954 18.1075 25.1543 20.2582C24.2976 21.0589 23.879 23.7042 23.836 24.2772C23.8203 24.4852 23.8242 24.6972 23.8125 24.8895V24.8856Z" fill="#356229"/>
<path fill-rule="evenodd" clip-rule="evenodd" d="M12.9453 28.6178L14.201 27.8486C14.4592 27.7151 16.2899 28.5158 16.5833 28.4216C25.7448 25.062 32.4458 23.076 40.9775 23.2291C49.3567 22.5893 63.7796 22.4206 65.1448 22.3068C63.2476 21.3687 56.3236 19.0335 51.7859 18.4565C46.3406 17.7972 40.7624 19.0413 35.3132 19.2415C26.6172 21.4276 18.0346 24.1396 12.9453 28.6139V28.6178Z" fill="#356229"/>
<path fill-rule="evenodd" clip-rule="evenodd" d="M16.8066 38.6334C17.3739 38.1781 18.5631 38.6256 19.4589 38.3665C25.8743 36.361 31.3782 34.5948 37.3164 34.4457C44.9679 33.543 55.9602 33.3938 58.632 33.1269C57.1807 32.6403 48.8641 31.0861 43.9587 30.8859C39.108 30.7093 34.2299 31.4864 29.4027 32.0594L29.3245 32.0712C22.5609 34.4182 18.3831 36.6043 16.8066 38.6334Z" fill="#1F3C88"/>
<path fill-rule="evenodd" clip-rule="evenodd" d="M56.1878 24.5904C41.7297 22.5573 29.4543 22.2119 14.9884 27.5026C8.6864 29.8025 11.3269 36.5924 16.7526 34.8615C30.4479 30.509 44.6283 30.5914 58.6327 33.1268C60.6395 29.3119 65.4002 25.9052 56.1917 24.5904H56.1878Z" fill="#037DC1"/>
<path fill-rule="evenodd" clip-rule="evenodd" d="M52.3729 35.5838C41.1186 33.7823 30.7796 33.8412 18.9659 37.5265C12.6874 39.485 15.3161 46.4476 20.7184 45.019C31.3077 42.2206 42.2022 42.1264 53.0849 43.7866C55.0956 40.1836 58.804 36.6042 52.3729 35.5877V35.5838Z" fill="#8A3E8F"/>
<path fill-rule="evenodd" clip-rule="evenodd" d="M27.1059 46.2987C29.5078 46.5655 31.2994 48.7438 31.1234 51.1575C30.9513 53.5556 28.8858 55.2825 26.4839 54.996C24.1016 54.7291 22.31 52.5548 22.4821 50.1371C22.6543 47.7391 24.7197 46.0121 27.102 46.2987H27.1059Z" fill="#CC1C5B"/>
<path fill-rule="evenodd" clip-rule="evenodd" d="M45.0029 45.8435C47.3852 46.1104 49.1964 48.2886 49.0243 50.6867C48.8522 53.1043 46.7633 54.8273 44.3849 54.5408C41.983 54.2739 40.1914 52.0957 40.3674 49.6819C40.5395 47.2839 42.605 45.557 45.0068 45.8435H45.0029Z" fill="#CC1C5B"/>
<path fill-rule="evenodd" clip-rule="evenodd" d="M14.7761 14.6881C19.8811 12.0702 24.5557 9.65255 28.9878 7.61951C25.0016 7.90602 22.9362 7.20348 19.7754 7.9335L16.5286 9.63293V9.65255C10.9269 13.3262 7.49228 16.5602 6.26396 19.3389C6.75685 18.2832 7.75046 18.2792 9.49905 17.561C11.2085 16.8624 13.0001 15.2297 14.7761 14.6881Z" fill="#FCC106"/>
<path fill-rule="evenodd" clip-rule="evenodd" d="M25.1543 20.2583C33.5061 18.9082 41.9517 18.9004 50.3348 19.8109C50.2487 19.4223 50.1235 19.0299 49.9592 18.6374C47.217 11.4001 33.2479 8.61741 25.9249 19.0338C25.6707 19.3792 25.4125 19.7991 25.1504 20.2583H25.1543Z" fill="#70B52B"/>
<path fill-rule="evenodd" clip-rule="evenodd" d="M27.5996 35.4114C31.441 34.7324 35.0947 34.8227 38.8422 34.442C38.897 34.234 38.94 33.8768 38.9713 33.7041C41.2597 33.6766 43.865 32.6994 46.0478 31.0196C45.3085 30.9646 44.6044 30.9175 43.9589 30.89C39.1082 30.7134 34.2302 31.4905 29.403 32.0635L29.3247 32.0753C28.9453 32.0479 28.7145 32.0871 28.4015 32.2009C28.3663 32.6954 28.1825 33.4098 28.0495 33.9553C27.9399 34.4066 27.7717 34.8933 27.6035 35.4153L27.5996 35.4114Z" fill="#1F3C88"/>
<path fill-rule="evenodd" clip-rule="evenodd" d="M50.5589 23.8997C41.3661 22.8949 32.8618 22.8596 23.8137 24.8848C23.7824 26.9492 24.3653 28.6369 25.75 29.8261C26.2156 30.2225 26.3094 30.25 26.9392 30.5051C28.0502 30.9878 28.3905 31.5648 28.4023 32.1967C34.0275 31.3764 39.684 31.2076 45.364 31.5216C47.9301 29.7751 50.0464 27.1141 50.5589 23.8997Z" fill="#037DC1"/>
<path fill-rule="evenodd" clip-rule="evenodd" d="M38.8228 34.418C35.1222 34.4376 31.4216 34.7477 27.5998 35.4109C26.9817 37.393 26.348 39.8538 28.7851 41.7887C30.5884 43.237 32.6734 43.1389 34.6411 42.2675C35.7442 41.773 36.2958 41.2393 36.8826 40.2659C37.6376 39.0374 38.4708 36.1723 38.8267 34.418H38.8228Z" fill="#8A3E8F"/>
<path fill-rule="evenodd" clip-rule="evenodd" d="M26.8718 0.680925C30.3142 0.77512 31.5973 2.07423 28.9881 7.62388C17.5851 8.46771 9.38588 11.113 3.15824 13.4208C-0.93354 14.9436 -0.988306 7.38446 2.92744 5.44562C9.56973 2.1331 16.2942 0.339468 26.8718 0.680925Z" fill="#FAD600"/>
<path fill-rule="evenodd" clip-rule="evenodd" d="M65.1403 22.3064C71.2506 16.0503 67.4248 14.3587 64.7139 13.8406C43.8913 9.85694 25.5369 10.0296 9.57274 16.5526C3.2473 19.1391 5.90344 25.7759 11.3409 23.8135C28.9363 17.4632 47.3493 18.3266 65.1403 22.3024V22.3064Z" fill="#70B52B"/>
<path d="M48.4379 22.3301C48.0036 28.4017 41.7212 30.9724 36.2095 30.9607L34.4374 37.8722C34.144 39.0183 33.7215 39.8856 33.1621 40.5175C31.6639 41.4634 28.9061 41.1298 29.8566 38.5002C30.1696 37.8722 30.4708 36.8596 30.682 35.9962L32.0434 30.5643C31.2923 30.3955 30.9559 30.3327 31.0654 30.3602C30.4669 30.2228 30.0992 30.003 29.9466 29.744C29.7745 29.4653 29.7236 29.116 29.7549 28.7157C29.7862 28.2761 29.9231 27.9621 30.1891 27.7149C30.4552 27.4833 30.8033 27.3773 31.2414 27.4087C31.4292 27.4205 31.5818 27.4519 31.6756 27.4794C32.1451 27.5893 32.501 27.6717 32.7631 27.7109C33.1191 26.2078 33.6433 24.2179 34.2966 21.6982C34.457 21.0584 34.7543 20.6032 35.1924 20.348C35.6501 20.0929 36.1508 19.9948 36.7219 20.038C37.3674 20.0851 37.8329 20.2342 38.0989 20.5011C38.3649 20.768 38.4901 21.1605 38.4549 21.6746C38.4314 21.9965 38.3962 22.2437 38.3453 22.4321L36.9566 28.0132C41.0328 27.7894 43.1921 25.8781 43.4503 22.2437C43.5402 20.9682 43.0591 19.9948 42.4019 19.0293C40.313 15.9523 34.7934 16.6273 32.4424 18.315C29.7471 20.2656 28.1706 23.115 27.4822 27.1615C27.4157 27.5383 27.0206 27.4912 26.7937 27.2086C24.1102 23.688 29.309 17.6125 32.4228 15.9444C34.7034 14.7317 37.16 14.2175 39.7771 14.4059C44.9915 14.7827 48.7899 17.4437 48.4379 22.334V22.3301Z" fill="white"/>
</svg>
