<svg width="62" height="79" viewBox="0 0 62 79" fill="none" xmlns="http://www.w3.org/2000/svg">
<path fill-rule="evenodd" clip-rule="evenodd" d="M28.1212 77.1217C28.1212 77.1217 0.507233 53.8501 0.507233 30.9513C0.507233 22.8781 3.71221 15.1354 9.41712 9.42676C15.122 3.71809 22.8595 0.510986 30.9275 0.510986C38.9954 0.510986 46.7329 3.71809 52.4378 9.42676C58.1427 15.1354 61.3477 22.8781 61.3477 30.9513C61.3477 53.8501 33.7337 77.1217 33.7337 77.1217C32.1975 78.5372 29.6688 78.522 28.1212 77.1217ZM30.9275 44.269C32.6752 44.269 34.4058 43.9245 36.0206 43.2552C37.6353 42.586 39.1024 41.605 40.3383 40.3683C41.5741 39.1317 42.5544 37.6636 43.2233 36.0478C43.8921 34.432 44.2363 32.7002 44.2363 30.9513C44.2363 29.2024 43.8921 27.4707 43.2233 25.8549C42.5544 24.2391 41.5741 22.771 40.3383 21.5343C39.1024 20.2977 37.6353 19.3167 36.0206 18.6474C34.4058 17.9782 32.6752 17.6337 30.9275 17.6337C27.3977 17.6337 24.0126 19.0368 21.5167 21.5343C19.0208 24.0319 17.6186 27.4193 17.6186 30.9513C17.6186 34.4834 19.0208 37.8708 21.5167 40.3683C24.0126 42.8659 27.3977 44.269 30.9275 44.269Z" fill="white"/>
<path d="M52.2284 30.1452C52.2284 41.7214 42.8438 51.1057 31.2673 51.1057C19.6908 51.1057 10.3062 41.7214 10.3062 30.1452C10.3062 18.5691 19.6908 9.18469 31.2673 9.18469C42.8438 9.18469 52.2284 18.5691 52.2284 30.1452Z" fill="#005DAF" stroke="#005DAF"/>
<path d="M46.5361 24.8926C46.3421 24.2726 45.7258 23.8575 44.7009 23.6611C37.3584 22.2574 31.0838 22.1213 25.6314 23.2615C26.804 22.6673 27.937 22.1093 29.0323 21.6046L29.1095 21.5684L29.264 21.41C29.9267 20.0011 30.0675 19.1192 29.719 18.5526C29.3722 17.9876 28.6391 17.8964 28.04 17.8809C23.7705 17.7431 20.677 18.3597 17.374 20.0063C16.1053 20.6349 15.6298 22.4141 16.083 23.4682C16.3748 24.1468 17.01 24.4017 17.7413 24.1279C18.8761 23.7076 20.3182 23.203 22.0315 22.7534C20.2478 24.0555 19.1473 25.213 18.6787 26.2705C18.3525 26.9577 18.4435 27.7121 18.9207 28.2512C19.4718 28.873 20.3714 29.0384 21.3293 28.6922C23.0203 28.0824 24.804 27.6054 26.6374 27.2712C26.6065 27.3625 26.5756 27.4607 26.5465 27.5657C24.4194 28.3563 22.8314 29.2261 21.695 30.2251C20.7697 30.9795 20.7164 31.9991 21.0787 32.6812C21.4615 33.4028 22.4194 33.9506 23.6898 33.5441C24.3817 33.3236 25.0907 33.1273 25.8134 32.9533C24.6134 33.532 23.8066 34.0901 23.3671 34.6378C23.113 34.8496 22.9224 35.1011 22.7954 35.3732L22.6237 36.0415C22.6031 36.3619 22.6666 36.6857 22.8194 36.9923C23.1216 37.5934 23.7928 38.0998 24.7078 38.0998C24.9293 38.0998 25.1662 38.0705 25.4134 38.005C29.743 36.8614 34.3438 36.6874 39.4803 37.4711L39.7121 37.5055L39.8271 37.3006C39.9696 37.0439 40.1378 36.7821 40.2992 36.5289C40.8468 35.6695 41.3653 34.8583 41.0494 34.1521C40.8296 33.6595 40.2648 33.3581 39.2743 33.2013C38.7867 33.1238 38.3078 33.0549 37.8391 32.9946C38.5086 32.9636 39.1438 32.9378 39.7138 32.9137C40.7627 32.8706 41.5919 32.8362 42.0005 32.7949L42.1807 32.7776L42.2648 32.6157C42.4279 32.3074 42.6391 31.9974 42.8434 31.6977C43.3567 30.9433 43.8425 30.232 43.5455 29.5568C43.2829 28.9609 42.4811 28.5957 40.9429 28.377C40.4794 28.3115 40.0314 28.253 39.5953 28.1978C40.8571 28.1582 42.0537 28.129 42.9824 28.1048C43.9953 28.0807 44.6648 28.0635 44.8519 28.048L44.9773 28.0377L45.0648 27.9481C46.3009 26.6822 46.7815 25.6832 46.5343 24.8926H46.5361Z" fill="white"/>
<path d="M28.1697 37.9019C27.5723 37.8295 26.9954 37.9983 26.5405 38.3755C26.0839 38.7545 25.8092 39.2953 25.7646 39.8998C25.6753 41.1382 26.5989 42.256 27.8178 42.3938C27.9088 42.4042 27.9997 42.4093 28.089 42.4093C28.592 42.4093 29.071 42.2388 29.459 41.9185C29.9156 41.5413 30.1903 41.0004 30.2332 40.3976C30.3225 39.1592 29.3972 38.0414 28.1714 37.9036L28.1697 37.9019Z" fill="white"/>
<path d="M36.0238 37.7051C35.4246 37.6328 34.841 37.8016 34.386 38.1805C33.9294 38.5577 33.6547 39.0985 33.6118 39.7013C33.5225 40.9397 34.4495 42.0593 35.6719 42.1953C35.7628 42.2057 35.8521 42.2108 35.9414 42.2108C36.4427 42.2108 36.9199 42.0403 37.3096 41.7199C37.768 41.341 38.0444 40.7968 38.0873 40.1905C38.1748 38.9573 37.2495 37.8429 36.0238 37.7051Z" fill="white"/>
<path fill-rule="evenodd" clip-rule="evenodd" d="M26.3521 28.5002C31.4199 27.3617 33.6843 28.2212 38.0894 28.0679C38.225 27.2222 38.11 26.7175 37.9916 26.2732C35.9487 26.051 32.1375 25.5256 26.941 26.4695C26.565 26.8209 26.3813 27.9817 26.3624 28.2332C26.3556 28.3245 26.3573 28.4175 26.3521 28.5019V28.5002Z" fill="#356229"/>
<path fill-rule="evenodd" clip-rule="evenodd" d="M21.586 30.141L22.1371 29.8034C22.2504 29.7449 23.0538 30.0962 23.1826 30.0549C27.2031 28.5806 30.1439 27.709 33.8881 27.7762C37.5653 27.4955 43.8949 27.4214 44.494 27.3715C43.6614 26.9598 40.6228 25.935 38.6314 25.6818C36.2417 25.3924 33.7937 25.9384 31.4023 26.0263C27.586 26.9856 23.8195 28.1758 21.586 30.1393V30.141Z" fill="#356229"/>
<path fill-rule="evenodd" clip-rule="evenodd" d="M23.2777 34.5356C23.5266 34.3358 24.0485 34.5321 24.4417 34.4184C27.2571 33.5383 29.6725 32.7632 32.2785 32.6978C35.6364 32.3016 40.4605 32.2362 41.633 32.1191C40.9961 31.9055 37.3463 31.2234 35.1935 31.1356C33.0648 31.0581 30.924 31.3991 28.8056 31.6506L28.7712 31.6558C25.803 32.6857 23.9696 33.6451 23.2777 34.5356Z" fill="#1F3C88"/>
<path fill-rule="evenodd" clip-rule="evenodd" d="M40.553 28.3722C34.208 27.48 28.8209 27.3284 22.4724 29.6502C19.7067 30.6595 20.8655 33.6392 23.2466 32.8796C29.2569 30.9695 35.4801 31.0057 41.626 32.1184C42.5066 30.4442 44.5959 28.9492 40.5547 28.3722H40.553Z" fill="#037DC1"/>
<path fill-rule="evenodd" clip-rule="evenodd" d="M38.8772 33.1967C33.9382 32.4061 29.4008 32.4319 24.2163 34.0492C21.461 34.9087 22.6146 37.9642 24.9854 37.3372C29.6326 36.1092 34.4137 36.0678 39.1896 36.7964C40.072 35.2153 41.6995 33.6445 38.8772 33.1984V33.1967Z" fill="#8A3E8F"/>
<path fill-rule="evenodd" clip-rule="evenodd" d="M27.7928 37.8991C28.8469 38.0163 29.6331 38.9722 29.5559 40.0314C29.4803 41.0838 28.5739 41.8416 27.5198 41.7159C26.4743 41.5988 25.6881 40.6446 25.7636 39.5836C25.8391 38.5312 26.7456 37.7734 27.7911 37.8991H27.7928Z" fill="#CC1C5B"/>
<path fill-rule="evenodd" clip-rule="evenodd" d="M35.6432 37.7024C36.6887 37.8195 37.4835 38.7754 37.408 39.8278C37.3324 40.8887 36.4157 41.6449 35.3719 41.5191C34.3179 41.402 33.5316 40.4461 33.6088 39.3868C33.6844 38.3345 34.5908 37.5766 35.6449 37.7024H35.6432Z" fill="#CC1C5B"/>
<path fill-rule="evenodd" clip-rule="evenodd" d="M22.3787 24.0308C24.619 22.882 26.6705 21.821 28.6156 20.9289C26.8662 21.0546 25.9598 20.7463 24.5727 21.0666L23.1478 21.8124V21.821C20.6894 23.4332 19.1821 24.8524 18.6431 26.0719C18.8594 25.6085 19.2954 25.6068 20.0628 25.2916C20.813 24.985 21.5993 24.2685 22.3787 24.0308Z" fill="#FCC106"/>
<path fill-rule="evenodd" clip-rule="evenodd" d="M26.943 26.4732C30.6082 25.8807 34.3146 25.8773 37.9935 26.2769C37.9558 26.1064 37.9008 25.9341 37.8287 25.7619C36.6253 22.5858 30.4949 21.3647 27.2812 25.9359C27.1696 26.0874 27.0563 26.2717 26.9412 26.4732H26.943Z" fill="#70B52B"/>
<path fill-rule="evenodd" clip-rule="evenodd" d="M28.0129 33.1205C29.6987 32.8225 31.3021 32.8621 32.9468 32.6951C32.9708 32.6038 32.9897 32.4471 33.0034 32.3713C34.0077 32.3592 35.1511 31.9303 36.109 31.1932C35.7845 31.1691 35.4755 31.1484 35.1923 31.1363C33.0635 31.0588 30.9228 31.3999 28.8043 31.6513L28.77 31.6565C28.6034 31.6444 28.5022 31.6617 28.3648 31.7116C28.3494 31.9286 28.2687 32.2421 28.2103 32.4815C28.1622 32.6796 28.0884 32.8931 28.0146 33.1222L28.0129 33.1205Z" fill="#1F3C88"/>
<path fill-rule="evenodd" clip-rule="evenodd" d="M38.0899 28.0716C34.0556 27.6306 30.3235 27.6151 26.3527 28.5039C26.3389 29.4099 26.5947 30.1505 27.2024 30.6723C27.4067 30.8463 27.4479 30.8584 27.7243 30.9703C28.2119 31.1822 28.3612 31.4354 28.3664 31.7127C30.835 31.3527 33.3174 31.2786 35.8101 31.4164C36.9363 30.65 37.8651 29.4822 38.0899 28.0716Z" fill="#037DC1"/>
<path fill-rule="evenodd" clip-rule="evenodd" d="M32.9382 32.6837C31.3142 32.6923 29.6902 32.8284 28.0129 33.1195C27.7417 33.9893 27.4636 35.0692 28.5331 35.9183C29.3245 36.5539 30.2395 36.5108 31.103 36.1285C31.5871 35.9114 31.8292 35.6772 32.0867 35.25C32.418 34.7109 32.7837 33.4536 32.9399 32.6837H32.9382Z" fill="#8A3E8F"/>
<path fill-rule="evenodd" clip-rule="evenodd" d="M27.6908 17.8803C29.2015 17.9216 29.7646 18.4917 28.6195 20.9272C23.6153 21.2975 20.017 22.4584 17.284 23.4711C15.4883 24.1394 15.4642 20.8221 17.1827 19.9713C20.0977 18.5176 23.0487 17.7305 27.6908 17.8803Z" fill="#FAD600"/>
<path fill-rule="evenodd" clip-rule="evenodd" d="M44.4808 27.3691C47.1623 24.6236 45.4834 23.8813 44.2937 23.6539C35.1555 21.9057 27.1006 21.9815 20.0946 24.8441C17.3187 25.9791 18.4843 28.8917 20.8706 28.0305C28.5925 25.2437 36.6731 25.6226 44.4808 27.3674V27.3691Z" fill="#70B52B"/>
<path d="M37.1557 27.3828C36.9651 30.0473 34.2081 31.1754 31.7892 31.1703L31.0115 34.2034C30.8828 34.7063 30.6974 35.0869 30.4519 35.3642C29.7944 35.7793 28.5841 35.6329 29.0012 34.4789C29.1386 34.2034 29.2708 33.759 29.3635 33.3801L29.9609 30.9963C29.6313 30.9222 29.4836 30.8947 29.5317 30.9067C29.269 30.8465 29.1077 30.75 29.0407 30.6363C28.9652 30.514 28.9429 30.3607 28.9566 30.1851C28.9703 29.9922 29.0304 29.8544 29.1472 29.7459C29.2639 29.6442 29.4167 29.5977 29.609 29.6115C29.6914 29.6167 29.7583 29.6305 29.7995 29.6425C30.0055 29.6907 30.1617 29.7269 30.2768 29.7441C30.433 29.0845 30.663 28.2112 30.9497 27.1055C31.0201 26.8247 31.1506 26.6249 31.3429 26.513C31.5437 26.401 31.7635 26.358 32.0141 26.3769C32.2974 26.3976 32.5016 26.463 32.6184 26.5801C32.7351 26.6973 32.7901 26.8695 32.7746 27.0951C32.7643 27.2364 32.7489 27.3449 32.7265 27.4276L32.1171 29.8768C33.9059 29.7786 34.8536 28.9398 34.9669 27.3449C35.0064 26.7851 34.7952 26.358 34.5068 25.9343C33.5901 24.5839 31.1677 24.8802 30.136 25.6208C28.9532 26.4768 28.2613 27.7272 27.9592 29.503C27.93 29.6684 27.7566 29.6477 27.657 29.5237C26.4794 27.9787 28.7609 25.3125 30.1274 24.5805C31.1283 24.0483 32.2064 23.8226 33.3549 23.9053C35.6433 24.0707 37.3102 25.2384 37.1557 27.3845V27.3828Z" fill="white"/>
</svg>
