<svg viewBox="0 0 32 32" xmlns="http://www.w3.org/2000/svg">
<path d="M24.9606 1.91992L23.1117 8.48319L19.414 10.4136L23.1117 12.3439L24.9606 18.135L26.8096 12.3439L30.5073 10.4136L26.8096 8.48319L24.9606 1.91992ZM12.5873 7.04048L11.734 10.4542L9.17396 11.3076L11.734 12.161L12.5873 15.5747L13.4406 12.161L16.0006 11.3076L13.4406 10.4542L12.5873 7.04048ZM0.640625 19.8427C0.640625 19.3714 1.02268 18.9893 1.49396 18.9893H4.05396C4.52526 18.9893 4.90729 19.3714 4.90729 19.8427V29.2265C4.90729 29.6978 4.52526 30.0799 4.05396 30.0799H1.49396C1.02268 30.0799 0.640625 29.6978 0.640625 29.2265V19.8427ZM10.6291 19.1498C11.4243 18.7873 13.3679 19.1498 13.3679 19.1498L19.0223 20.4186C19.0223 20.4186 20.4359 20.8718 21.7612 20.8718C23.0865 20.8718 22.2942 22.6856 21.4078 23.3188C20.5213 23.9522 19.8765 23.9178 19.8765 23.9178L15.3117 23.8626C15.3117 23.8626 19.2874 24.5877 20.7893 24.6783C21.5502 24.7243 22.8551 24.1887 24.3137 23.5901C25.7345 23.0071 27.301 22.3643 28.6524 22.1407C31.3913 21.6875 31.833 24.1345 30.9495 25.0408C30.066 25.9471 22.9981 29.391 21.7612 29.8442C20.7925 30.1991 19.6208 30.0813 18.2987 29.9484C17.9327 29.9116 17.555 29.8736 17.167 29.8442C15.623 29.7272 14.4432 29.3521 13.2753 28.9807C12.0233 28.5828 10.7852 28.1891 9.12711 28.1222C8.57091 28.0998 7.26881 28.1687 6.61396 28.207V20.6452C7.7454 20.2427 10.0369 19.4198 10.6291 19.1498Z" />
</svg>
