<svg width="42" height="56" viewBox="0 0 42 56" fill="none" xmlns="http://www.w3.org/2000/svg">
<path d="M4.47039 45.493L2.08756 43.3917C1.52245 42.8945 1.09527 42.331 0.803824 41.7101C0.512378 41.0892 0.356625 40.4042 0.341053 39.6639L0.00064876 23.9071C-0.0127001 23.4298 0.180864 22.99 0.49679 22.663C0.814942 22.3382 1.25767 22.1261 1.74493 22.115C2.2344 22.0996 2.6838 22.2852 3.01534 22.5901C3.34907 22.8995 3.5582 23.3281 3.57155 23.8054L3.74065 31.5438C3.48479 31.6963 3.25785 31.8797 3.05763 32.0963C2.50141 32.6752 2.21883 33.4905 2.25443 34.275C2.29225 35.0462 2.62598 35.8041 3.25561 36.3587L8.78658 41.2355C9.05579 41.4741 9.4696 41.452 9.71434 41.1891C9.95685 40.9283 9.93905 40.5217 9.67429 40.2875L4.18114 35.4439C4.15667 35.4196 4.13442 35.3975 4.10994 35.3798C3.42692 34.7434 3.37572 33.685 3.99425 32.9823C4.0165 32.9646 4.03875 32.9381 4.05655 32.9182C4.4726 32.494 5.06884 32.3084 5.65401 32.4012C5.97884 32.4542 6.29032 32.5934 6.54617 32.8188L13.0648 38.5661C13.8702 39.2732 14.4821 40.0753 14.8981 40.9658C15.3142 41.8496 15.5322 42.8285 15.5567 43.887L15.6879 49.8577L6.63301 49.9019C6.58629 49.071 6.39495 48.2977 6.06123 47.5861C5.69635 46.8061 5.16457 46.1051 4.47039 45.493ZM5.1779 26.6136C5.10003 26.6159 5.02216 26.6225 4.94651 26.6313L5.04441 31.1081C5.31807 31.0794 5.60062 31.0905 5.87871 31.1324C6.45938 31.2252 6.99556 31.4771 7.4339 31.8616L7.74316 32.1334L7.67419 28.9206C7.64081 27.6147 6.51951 26.5761 5.1779 26.6136ZM18.3513 51.1232L4.04105 51.1917C3.69842 51.1939 3.41584 51.4745 3.41362 51.8149L3.40472 55.3835C3.40472 55.7238 3.68505 56.0044 4.02993 55.9999L18.3402 55.9314C18.6828 55.9314 18.9676 55.6486 18.9676 55.3083L18.9765 51.7397C18.9788 51.3994 18.6984 51.1209 18.3513 51.1232ZM41.5012 22.663C41.1831 22.3382 40.7403 22.126 40.2531 22.115H40.2509C39.7636 22.0995 39.312 22.2851 38.9804 22.5901C38.6489 22.8994 38.4398 23.3281 38.4287 23.8053L38.2596 31.5438C38.5132 31.6962 38.7446 31.8797 38.9426 32.0962C39.4988 32.6751 39.7814 33.4905 39.7458 34.2749C39.708 35.0461 39.372 35.804 38.7446 36.3587L33.2137 41.2354C32.9445 41.4741 32.5306 41.452 32.2859 41.189C32.0434 40.9283 32.0612 40.5217 32.326 40.2874L37.8191 35.4438C37.8414 35.4195 37.8658 35.3974 37.8903 35.3798C38.5733 34.7434 38.6245 33.6849 38.006 32.9823C37.9837 32.9646 37.9615 32.9381 37.9437 32.9182C37.5276 32.4939 36.9314 32.3083 36.3462 32.4011C36.0214 32.4542 35.7099 32.5934 35.4541 32.8187L28.9354 38.5637C28.13 39.2708 27.5182 40.073 27.1021 40.9635C26.6861 41.8473 26.468 42.8262 26.4436 43.8847L26.3123 49.8554L35.3672 49.8995C35.414 49.0687 35.6053 48.2953 35.9346 47.5838C36.2994 46.806 36.8312 46.1055 37.5276 45.4934L39.9104 43.3921C40.4755 42.8949 40.9027 42.3314 41.1941 41.7105C41.4856 41.0896 41.6413 40.4046 41.6569 39.6643L41.9995 23.9052C42.0107 23.4279 41.8172 22.9878 41.5012 22.663ZM34.3259 28.9227L34.2569 32.1356L34.5662 31.8638C35 31.4793 35.5406 31.2274 36.1213 31.1346C36.3995 31.0904 36.6798 31.0816 36.9556 31.1103L37.0535 26.6335C36.9779 26.6246 36.9 26.618 36.8222 26.6158C35.4783 26.576 34.3526 27.6146 34.3259 28.9227ZM37.9568 51.1917L23.6443 51.1232C23.3017 51.1209 23.0191 51.3994 23.0236 51.7396L23.0325 55.3082C23.0325 55.6485 23.3172 55.9314 23.6599 55.9314L37.9702 55.9999C38.3128 56.0021 38.5954 55.7237 38.5954 55.3834L38.5865 51.8148C38.5798 51.4745 38.2995 51.1961 37.9568 51.1917ZM22.9437 24.4149C21.5888 24.0525 20.4096 24.0525 19.0547 24.4149C18.7632 24.4922 18.4718 24.3707 18.3182 24.1166L15.1812 18.7802C14.6406 17.8588 13.4369 17.5428 12.5069 18.0819C11.5792 18.6211 11.261 19.8187 11.8039 20.738L16.4271 28.5997C16.4894 28.7058 16.5183 28.8074 16.5183 28.9289V32.8113C11.855 31.0237 8.54217 26.5295 8.54217 21.2659C8.54217 14.4337 14.1199 8.89178 21.0014 8.89178C27.8806 8.89178 33.4606 14.4314 33.4606 21.2659C33.4606 26.5294 30.1478 31.0215 25.4844 32.8113V28.9289C25.4844 28.8074 25.5133 28.7058 25.5756 28.5997L30.1989 20.738C30.7395 19.8165 30.4236 18.6211 29.4958 18.0819C28.5658 17.5428 27.36 17.8588 26.8171 18.7802L23.6823 24.1166C23.5265 24.3707 23.2307 24.4922 22.9437 24.4149ZM24.1896 18.727C24.1896 16.9792 22.7591 15.5583 20.9992 15.5583C19.2348 15.5583 17.8087 16.9791 17.8087 18.727C17.8087 20.4793 19.2348 21.8957 20.9992 21.8957C22.759 21.8957 24.1896 20.4793 24.1896 18.727ZM20.9992 6.81898C21.4931 6.81898 21.8958 6.41904 21.8958 5.9285V0.890485C21.8958 0.397732 21.4931 0 20.9992 0C20.5053 0 20.1026 0.395531 20.1026 0.890485V5.9285C20.1026 6.41905 20.5053 6.81898 20.9992 6.81898ZM28.2725 8.75025C28.6997 8.99774 29.247 8.8519 29.4939 8.42764L32.0325 4.06578C32.2794 3.64153 32.1326 3.09797 31.7054 2.85269C31.2805 2.60742 30.7354 2.75105 30.484 3.1753L27.9499 7.54163C27.7007 7.96368 27.8453 8.50498 28.2725 8.75025ZM34.8156 14.365L39.212 11.8438C39.6369 11.603 39.786 11.0594 39.539 10.6373C39.2943 10.2131 38.7492 10.0673 38.322 10.3081L33.9302 12.8293C33.503 13.0746 33.3562 13.6137 33.5987 14.038C33.8457 14.4623 34.3907 14.6103 34.8156 14.365ZM12.5047 8.42544C12.7517 8.8497 13.2945 8.99553 13.7217 8.75027C14.1466 8.5072 14.2957 7.96585 14.0487 7.5438L11.5124 3.17973C11.2699 2.75547 10.7226 2.60964 10.2977 2.8549C9.87049 3.09576 9.72365 3.63933 9.96616 4.06358L12.5047 8.42544ZM2.78681 11.8438L7.18316 14.365C7.60811 14.6103 8.15318 14.4623 8.39792 14.0402C8.64488 13.616 8.49804 13.0768 8.07087 12.8315L3.67902 10.3103C3.25185 10.0673 2.70456 10.2131 2.46204 10.6396C2.21286 11.0616 2.35964 11.603 2.78681 11.8438Z" fill="#1F3C88"/>
</svg>
