<svg viewBox="0 0 50 50" xmlns="http://www.w3.org/2000/svg">
<path d="M25.0013 5.00033C13.0013 5.00033 3.33464 14.667 3.33464 26.667C3.33464 38.667 13.0013 48.3337 25.0013 48.3337C37.0013 48.3337 46.668 38.667 46.668 26.667C46.668 14.667 37.0013 5.00033 25.0013 5.00033ZM25.0013 45.167C14.8346 45.167 6.5013 36.8337 6.5013 26.667C6.5013 16.5003 14.8346 8.16699 25.0013 8.16699C35.168 8.16699 43.5013 16.5003 43.5013 26.667C43.5013 36.8337 35.168 45.167 25.0013 45.167ZM4.5013 11.167L11.168 4.50033C11.8346 3.83366 11.8346 2.83366 11.168 2.16699C10.5013 1.50033 9.5013 1.50033 8.83464 2.16699L2.16797 8.83366C1.5013 9.50033 1.5013 10.5003 2.16797 11.167C2.5013 11.5003 2.83464 11.667 3.33464 11.667C3.83464 11.667 4.16797 11.5003 4.5013 11.167ZM47.8346 8.83366L41.168 2.16699C40.5013 1.50033 39.5013 1.50033 38.8346 2.16699C38.168 2.83366 38.168 3.83366 38.8346 4.50033L45.5013 11.167C45.8346 11.5003 46.168 11.667 46.668 11.667C47.168 11.667 47.5013 11.5003 47.8346 11.167C48.5013 10.5003 48.5013 9.50033 47.8346 8.83366Z" />
<path d="M38.1667 28.3337H38C37.1667 28.167 36.5 27.5003 36.5 26.667C36.5 25.8337 37.1667 25.167 38 25.0003H40C39.1667 18.0003 33.6667 12.5003 26.6667 11.667V13.667C26.5 14.5003 25.8333 15.167 25 15.167C24.1667 15.167 23.5 14.5003 23.3333 13.667V11.667C16.3333 12.5003 10.8333 18.0003 10 25.0003H12C12.8333 25.167 13.5 25.8337 13.5 26.667C13.5 27.5003 12.8333 28.167 12 28.3337H10C10.8333 35.3337 16.3333 40.8337 23.3333 41.667V39.667C23.5 38.8337 24.1667 38.167 25 38.167C25.8333 38.167 26.5 38.8337 26.6667 39.667V41.667C33.6667 40.8337 39.1667 35.3337 40 28.3337H38.1667C38.3333 28.3337 38.3333 28.3337 38.1667 28.3337ZM33.1667 27.3337C33.1667 27.5003 33 27.667 32.8333 27.8337L27.8333 32.8337C27.5 33.167 27.1667 33.3337 26.6667 33.3337C26.1667 33.3337 25.8333 33.167 25.5 32.8337C24.8333 32.167 24.8333 31.167 25.5 30.5003L27.6667 28.3337H18.3333C17.5 28.3337 16.6667 27.5003 16.6667 26.667C16.6667 25.8337 17.5 25.0003 18.3333 25.0003H27.6667L25.5 22.8337C24.8333 22.167 24.8333 21.167 25.5 20.5003C26.1667 19.8337 27.1667 19.8337 27.8333 20.5003L32.8333 25.5003C33 25.667 33.1667 25.8337 33.1667 26.0003C33.3333 26.5003 33.3333 26.8337 33.1667 27.3337Z" />
</svg>
