<svg  viewBox="0 0 40 40" xmlns="http://www.w3.org/2000/svg">
<path d="M34.2842 29.971C33.5485 30.4496 32.6843 30.7139 31.7843 30.7139C30.8843 30.7139 30.02 30.4496 29.2843 29.971C28.5486 30.4496 27.6843 30.7139 26.7843 30.7139C25.5343 30.7139 24.3986 30.221 23.5701 29.4067V37.8564C23.5701 39.035 24.5344 39.9993 25.7129 39.9993H28.57V36.2493C28.57 35.1654 29.4504 34.2851 30.5343 34.2851H33.0343C34.1182 34.2851 34.9985 35.1654 34.9985 36.2493V39.9993H37.8556C39.0342 39.9993 39.9985 39.035 39.9985 37.8564V29.4067C39.1699 30.221 38.0342 30.7139 36.7842 30.7139C35.8842 30.7139 35.02 30.4496 34.2842 29.971Z" />
<path d="M33.0338 35.7144H30.5338C30.2392 35.7144 29.9981 35.9554 29.9981 36.2501V40H33.5695V36.2501C33.5695 35.9554 33.3285 35.7144 33.0338 35.7144Z" />
<path d="M37.8553 23.5713H25.7129C24.5344 23.5713 23.5701 24.5356 23.5701 25.7141V26.0713C23.5701 27.8427 25.0129 29.2855 26.7843 29.2855C27.7986 29.2855 28.6914 28.8069 29.2843 28.064C29.8771 28.8069 30.77 29.2855 31.7843 29.2855C32.7986 29.2855 33.6914 28.8069 34.2842 28.064C34.8771 28.8069 35.7699 29.2855 36.7842 29.2855C38.5556 29.2855 39.9985 27.8427 39.9985 26.0713V25.7141C39.9985 24.5356 39.0339 23.5713 37.8553 23.5713Z" />
<path d="M9.99869 10.7152C10.3915 10.7152 10.713 10.3938 10.713 10.0009V3.98682L3.98438 10.7154L9.99869 10.7152Z" />
<path d="M25.7132 22.1432H31.4274V5.71466C31.4274 4.53612 30.4632 3.57183 29.2846 3.57183H12.142V10.0001C12.142 11.1786 11.1777 12.1429 9.99917 12.1429H3.57092V32.8567C3.57092 33.2495 3.2495 33.5709 2.85664 33.5709C2.46379 33.5709 2.14237 33.2495 2.14237 32.8567V11.4284C2.14237 10.8641 2.37094 10.3141 2.77093 9.91414L9.91369 2.77139C10.3137 2.36425 10.8565 2.14283 11.428 2.14283H27.8565C27.8565 0.964283 26.8922 0 25.7137 0H2.14283C0.957106 0 0 0.964283 0 2.14283V34.285C0 35.4635 0.957152 36.4278 2.14283 36.4278H3.57138V37.8564C3.57138 39.0349 4.52853 39.9992 5.7142 39.9992H22.8568C22.4068 39.4063 22.1425 38.6635 22.1425 37.8564V25.7139C22.1425 23.7425 23.7425 22.1425 25.7139 22.1425L25.7132 22.1432ZM17.856 30.3575H7.85612C7.46148 30.3575 7.14184 30.0379 7.14184 29.6432C7.14184 29.2486 7.46148 28.929 7.85612 28.929H17.856C18.2506 28.929 18.5702 29.2486 18.5702 29.6432C18.5702 30.0379 18.2506 30.3575 17.856 30.3575ZM17.856 26.0719H7.85612C7.46148 26.0719 7.14184 25.7522 7.14184 25.3576C7.14184 24.9629 7.46148 24.6433 7.85612 24.6433H17.856C18.2506 24.6433 18.5702 24.9629 18.5702 25.3576C18.5702 25.7522 18.2506 26.0719 17.856 26.0719ZM17.856 21.7862H7.85612C7.46148 21.7862 7.14184 21.4666 7.14184 21.0719C7.14184 20.6773 7.46148 20.3577 7.85612 20.3577H17.856C18.2506 20.3577 18.5702 20.6773 18.5702 21.0719C18.5702 21.4666 18.2506 21.7862 17.856 21.7862ZM7.85612 17.5005C7.46148 17.5005 7.14184 17.1809 7.14184 16.7863C7.14184 16.3916 7.46148 16.072 7.85612 16.072H27.1418C27.5364 16.072 27.8561 16.3916 27.8561 16.7863C27.8561 17.1809 27.5364 17.5005 27.1418 17.5005H7.85612Z" />
</svg>
