
<svg  viewBox="0 0 51 40" xmlns="http://www.w3.org/2000/svg">
<path  d="M42.839 7.43728L38.5145 9.94061L46.6756 24.1153L51 21.6119L42.839 7.43728ZM13.3624 10.2874L9.24873 7.4511L0 20.9414L4.1137 23.7777L13.3624 10.2874ZM17.1349 21.2496C17.1165 21.268 17.1532 21.2335 17.1646 21.2289H17.1555L17.1349 21.2496ZM13.3029 32.8108L16.1407 28.8675L17.1806 27.4046C17.5265 26.7707 17.357 25.9806 16.7843 25.5465C16.7569 25.5305 16.7294 25.5121 16.7042 25.4914C16.0308 25.0597 15.1398 25.225 14.6656 25.8704L10.9 31.109L10.8886 31.1274L10.8726 31.1504H10.8703C10.4282 31.7911 10.5702 32.6707 11.1932 33.137L11.2093 33.1461L11.2322 33.1622L11.2299 33.1645C11.9033 33.6261 12.8195 33.47 13.3051 32.8108L13.3029 32.8108ZM17.1669 34.7354L16.4041 35.8102C15.9277 36.4716 15.0115 36.6278 14.345 36.1616C13.6876 35.6885 13.5319 34.7744 13.9968 34.1107V34.1061L17.3043 29.4508L18.1151 28.3254L18.1334 28.3002L18.1495 28.2772L18.1541 28.2726C18.1907 28.2221 18.2228 28.1692 18.2571 28.1164L18.5297 27.7329H18.5274C18.9924 27.0898 19.8765 26.9222 20.543 27.3539C20.5659 27.3723 20.5934 27.3907 20.6186 27.4091C21.2485 27.8891 21.3905 28.7801 20.937 29.4324L20.9324 29.437L19.9566 30.8104C19.8513 30.9183 19.7551 31.0331 19.668 31.1549L17.3752 34.3885C17.2974 34.4988 17.2287 34.6137 17.1669 34.7354ZM10.4741 29.4761C10.0023 30.1352 9.08607 30.2914 8.42184 29.8252C7.76446 29.3498 7.60873 28.4311 8.07598 27.7674L10.3688 24.5337H10.3665C10.8315 23.8838 11.7247 23.7184 12.3867 24.1617C12.4073 24.1778 12.4302 24.1938 12.4531 24.2076C13.0716 24.6807 13.2204 25.5558 12.7898 26.2057C12.7715 26.2286 12.7555 26.2539 12.7394 26.2792L10.4741 29.4738L10.4741 29.4761ZM20.9941 36.6119L23.1174 33.6171V33.6148C23.5732 32.9625 23.4357 32.0646 22.8013 31.5823C22.7807 31.5685 22.7578 31.5524 22.7371 31.5363C22.176 31.1643 21.4361 31.2171 20.9345 31.665L18.2822 35.3947C18.1654 35.6611 18.1287 35.9551 18.1791 36.2422C18.241 36.6142 18.4402 36.9472 18.7403 37.1746C18.7632 37.1884 18.7861 37.2045 18.8067 37.2205C19.4549 37.6523 20.3276 37.503 20.7994 36.8829C20.8154 36.8577 20.8315 36.8324 20.8498 36.8117L20.9918 36.6119L20.9941 36.6119ZM38.6032 27.042L33.3878 23.078C34.265 23.2227 35.1606 23.1791 36.0173 22.9471C36.3563 22.8369 36.5418 22.4717 36.4318 22.1318C36.3219 21.7919 35.9577 21.6059 35.6187 21.7184C34.3841 21.9665 33.106 21.8677 31.9242 21.429C30.6186 21.057 29.423 20.3726 28.4403 19.4333C28.0945 19.0819 27.7142 18.7627 27.3088 18.4825C26.9859 18.2367 26.6125 18.0714 26.214 17.9979C24.7481 17.8532 23.541 19.1094 22.2972 20.4094C21.9193 20.8044 21.5345 21.2017 21.1451 21.5577C21.1337 21.5669 21.1245 21.576 21.1154 21.5875C19.9862 22.605 18.7882 23.1745 17.4208 21.6679V21.6656C17.3017 21.5439 17.2147 21.3946 17.1643 21.2315H17.1551C18.0759 20.2371 18.9165 19.1738 19.6701 18.0484C21.5528 15.3912 23.4746 12.6811 26.7522 13.083C27.9776 13.2323 28.9648 13.4367 29.8375 13.6159C31.9012 14.043 33.374 14.3462 35.4079 13.5883V13.5906C35.4423 13.5768 35.4767 13.5608 35.5064 13.5447L38.2092 11.9899L44.7325 23.3195L42.0046 24.8881L42.0023 24.8904C41.3197 25.2257 40.6692 25.6253 40.0622 26.0846C39.595 26.4291 39.1071 26.7503 38.6032 27.042ZM34.6933 31.1944C35.0392 31.4424 35.282 31.8122 35.3736 32.2301C35.4469 32.6206 35.3553 33.0248 35.1217 33.3463C34.8743 33.6724 34.4986 33.8722 34.0932 33.8929C33.5916 33.9273 33.0923 33.7826 32.6869 33.4864L31.7341 32.8066C31.718 32.7928 31.6997 32.779 31.6791 32.7653L31.6562 32.7492L28.8916 30.7786V30.7809C28.7519 30.6707 28.5755 30.6248 28.4014 30.65C28.2273 30.6753 28.0716 30.7717 27.9685 30.9141C27.8677 31.0588 27.8288 31.238 27.8609 31.4125C27.8952 31.5848 27.996 31.7363 28.1449 31.8328L30.9095 33.8033C30.9278 33.8171 30.9438 33.8309 30.9645 33.8447L30.9828 33.8562C31.3813 34.1409 31.6677 34.5543 31.7959 35.0275C31.9104 35.4202 31.8463 35.8405 31.6195 36.1803C31.3744 36.5042 30.9988 36.704 30.5934 36.7246C30.0918 36.7591 29.5925 36.6167 29.1848 36.3181L28.0968 35.5442L26.6446 34.5107L26.6469 34.5084C26.5071 34.4005 26.3308 34.3522 26.1567 34.3775C25.9826 34.4027 25.8246 34.4992 25.7238 34.6439C25.6207 34.7863 25.5818 34.9654 25.6139 35.14C25.6482 35.3145 25.7513 35.4661 25.8979 35.5625L27.3501 36.5983L27.3524 36.596C27.7646 36.8831 28.0647 37.308 28.1975 37.7949C28.3235 38.1853 28.2594 38.6148 28.0212 38.9501C27.7853 39.2854 27.4027 39.4875 26.995 39.4944C26.4911 39.5311 25.9941 39.3864 25.5864 39.0902L22.421 36.8326L24.1709 34.3637C25.039 33.135 24.7687 31.4355 23.5639 30.5352C23.5342 30.5123 23.5044 30.4893 23.4723 30.4709C23.0669 30.1953 22.5951 30.0323 22.1072 30.0001C22.8424 28.7668 22.5103 27.1729 21.3445 26.3347L21.3399 26.3301L21.3376 26.3324C20.7421 25.9075 20.0023 25.7375 19.2807 25.8616C19.0402 25.9029 18.8066 25.9741 18.5844 26.0774C18.4355 25.4459 18.0691 24.8878 17.5491 24.5042L17.5194 24.4836L17.4965 24.4675L17.4919 24.4652V24.4629C16.8918 24.0403 16.1519 23.8749 15.4305 23.999C14.9838 24.0748 14.5601 24.2562 14.1981 24.5318C14.0172 23.9668 13.6576 23.4753 13.1766 23.1308C11.9328 22.2489 10.2104 22.5406 9.32628 23.7831L8.38716 25.1106C8.02526 24.8212 7.66106 24.5341 7.29687 24.2516C6.90062 23.9462 6.4769 23.6247 6.02335 23.2871L13.4743 12.4008L13.7377 12.5845C14.7249 13.2827 15.8633 13.7351 17.0566 13.9074L20.7741 14.4723H20.7764C20.0045 15.3726 19.2829 16.3165 18.6164 17.2949C17.8972 18.372 17.0955 19.3895 16.2183 20.338C15.9183 20.6365 15.7969 21.0729 15.9022 21.484C15.9984 21.8744 16.1931 22.235 16.4703 22.5289C18.566 24.8462 20.332 24.0287 21.9766 22.545C21.9903 22.5335 22.0041 22.5243 22.0155 22.5129C22.4255 22.1408 22.8286 21.7182 23.2295 21.3025C24.2487 20.2346 25.2405 19.1988 26.0857 19.2815C26.2667 19.3412 26.4339 19.4331 26.5827 19.5502C26.9149 19.7799 27.2264 20.0417 27.5081 20.3287C28.1723 20.9993 28.9465 21.5505 29.794 21.9616L38.3995 28.5048L38.4201 28.5186L38.4453 28.537C38.8484 28.8172 39.1393 29.2328 39.2652 29.7105C39.3752 30.0964 39.3133 30.5144 39.098 30.852L39.0843 30.8704C38.8392 31.1942 38.4659 31.3917 38.0604 31.4147C37.5611 31.4514 37.0664 31.309 36.661 31.0127L36.6541 31.0082L35.3851 30.0964L35.3531 30.0734L31.0401 26.9776H31.0424C30.9026 26.8788 30.7309 26.8375 30.5614 26.865C30.3919 26.8926 30.2407 26.9867 30.1399 27.1268C29.9338 27.4185 30.0002 27.8227 30.2911 28.0317L34.6018 31.1276C34.6133 31.1368 34.6247 31.1437 34.6362 31.1528L34.6957 31.1942L34.6933 31.1944ZM26.1383 7.36691C26.1383 7.72518 25.8474 8.01458 25.4923 8.01458C25.135 8.01458 24.8464 7.7252 24.8464 7.36691V1.14768C24.8464 0.789396 25.135 0.5 25.4923 0.5C25.8473 0.5 26.1383 0.789379 26.1383 1.14768V7.36691ZM20.8473 8.343C20.9457 8.49229 20.9801 8.67372 20.9389 8.84827C20.8976 9.02282 20.7877 9.17209 20.6342 9.26166C20.4808 9.35123 20.2953 9.3742 20.1235 9.32137C19.954 9.27085 19.812 9.14912 19.7318 8.99066L16.6304 3.60501V3.60271C16.4793 3.29726 16.5915 2.92752 16.8847 2.75525C17.1802 2.5853 17.5558 2.67258 17.7459 2.95736L20.8473 8.343ZM31.2505 8.99068C31.1704 9.14915 31.0284 9.27087 30.8589 9.3214C30.6871 9.37422 30.5038 9.35125 30.3481 9.26168C30.1946 9.17212 30.0847 9.02283 30.0435 8.84829C30.0045 8.67374 30.0366 8.49231 30.1351 8.34303L33.2387 2.95738C33.4288 2.67259 33.8045 2.58532 34.0976 2.75527C34.3931 2.92752 34.5053 3.29728 34.3541 3.60273L31.2505 8.99068Z" />
</svg>
