<svg width="42" height="44" viewBox="0 0 42 44" fill="none" xmlns="http://www.w3.org/2000/svg">
<path fill-rule="evenodd" clip-rule="evenodd" d="M38.0361 6.91426L35.2135 9.72204C35.1739 9.76139 35.1106 9.75746 35.077 9.7122C34.355 8.77364 33.5243 7.92363 32.6006 7.18187C32.5591 7.14842 32.5551 7.08545 32.5927 7.04807L35.3816 4.27375C35.4172 4.23833 35.4172 4.18127 35.3816 4.14585L34.0109 2.78231C33.9615 2.73312 33.9832 2.64851 34.0524 2.6308L41.5963 0.619894C41.6635 0.602185 41.7268 0.663181 41.707 0.730081L39.6855 8.23635C39.6677 8.30325 39.5827 8.32687 39.5332 8.27767L38.1625 6.91413C38.1289 6.87872 38.0697 6.87885 38.0361 6.91426ZM41.3176 17.8659C41.6934 17.8659 42 18.1689 42 18.5448C42 18.9186 41.6954 19.2236 41.3176 19.2236H39.4029C39.0271 19.2236 38.7205 18.9206 38.7205 18.5448C38.7205 18.1709 39.0251 17.8659 39.4029 17.8659H41.3176ZM22.6337 0.678849C22.6337 0.305001 22.9383 0 23.3162 0C23.692 0 23.9986 0.303011 23.9986 0.678849V2.58347C23.9986 2.95732 23.694 3.26232 23.3162 3.26232C22.9403 3.26232 22.6337 2.95931 22.6337 2.58347V0.678849ZM10.125 6.41056C9.85798 6.14493 9.85798 5.71599 10.125 5.45235C10.392 5.18672 10.8232 5.18672 11.0883 5.45235L12.4412 6.79821C12.7082 7.06384 12.7082 7.49277 12.4412 7.75642C12.1742 8.02008 11.743 8.02204 11.478 7.75642L10.125 6.41056ZM5.35606 19.2652C4.98024 19.2652 4.67363 18.9622 4.67363 18.5864C4.67363 18.2125 4.97824 17.9075 5.35606 17.9075H7.27073C7.64655 17.9075 7.95316 18.2105 7.95316 18.5864C7.95316 18.9602 7.64855 19.2652 7.27073 19.2652H5.35606ZM17.8866 35.2106H28.6549C29.4976 35.2106 30.1859 35.8954 30.1859 36.7335V37.7232C30.1859 38.5615 29.4975 39.2461 28.6549 39.2461L17.8866 39.2481C17.0439 39.2481 16.3556 38.5634 16.3556 37.7252V36.7355C16.3556 35.8953 17.044 35.2106 17.8866 35.2106ZM28.2827 40.7318C27.4282 42.6561 25.4938 44 23.2409 44C20.9899 44 19.0535 42.6561 18.199 40.7318C18.1733 40.6728 18.2168 40.6039 18.2821 40.6039H28.1977C28.2649 40.6039 28.3084 40.6708 28.2827 40.7318ZM23.5316 18.6749C22.7998 17.9469 21.6129 17.9527 20.8772 18.6749L10.7144 28.6604C10.6788 28.6958 10.6214 28.6958 10.5858 28.6604L7.59313 25.6834C7.55159 25.6421 7.48038 25.6499 7.45071 25.7011L0.0132264 38.0853C-0.0401799 38.1758 0.0804767 38.2702 0.155641 38.1955L7.44628 30.9431C7.48188 30.9076 7.53924 30.9076 7.57485 30.9431L10.5853 33.9378C10.6209 33.9732 10.6783 33.9732 10.7139 33.9378L13.3031 31.3621L23.5312 21.3137C24.267 20.5935 24.2635 19.4009 23.5316 18.6749ZM23.316 8.99005C17.9475 8.99005 13.5963 13.3188 13.5963 18.6587C13.5963 20.1443 13.9326 21.5511 14.5359 22.8085C14.5636 22.8655 14.6368 22.8773 14.6823 22.834L17.139 20.4217C17.1627 20.3981 17.1726 20.3666 17.1627 20.3332C16.0629 16.3271 19.0833 12.3111 23.3201 12.3111C26.8429 12.3111 29.7013 15.1543 29.7013 18.6588C29.7013 22.7318 25.9095 25.7244 21.9494 24.859C21.9177 24.8531 21.888 24.861 21.8663 24.8826L19.3523 27.3519C19.3068 27.3972 19.3206 27.4739 19.38 27.4995C20.5846 28.0327 21.9177 28.3279 23.3221 28.3279C28.6906 28.3279 33.0418 23.9991 33.0418 18.6592C33.0378 13.3209 28.6842 8.99005 23.316 8.99005ZM30.3894 34.2898C32.7373 27.5427 36.7448 24.3592 36.7448 18.6376C36.7448 11.2608 30.7338 5.27922 23.316 5.27922C15.9003 5.27922 9.88723 11.2588 9.88723 18.6376C9.88723 21.2447 10.7199 23.3245 11.8474 25.4553C11.8751 25.5084 11.9483 25.5202 11.9918 25.4769L13.5247 23.9717C13.5544 23.9422 13.5603 23.9009 13.5406 23.8655C12.7059 22.315 12.2311 20.5441 12.2311 18.6631C12.2311 12.5733 17.1939 7.63645 23.316 7.63645C29.4379 7.63645 34.4008 12.5732 34.4008 18.6631C34.4008 24.7531 29.438 29.6898 23.316 29.6898C21.5041 29.6898 19.7932 29.257 18.282 28.4896C18.2464 28.4719 18.2049 28.4778 18.1772 28.5053L15.1568 31.4725C15.1291 31.5 15.1212 31.5394 15.139 31.5748C15.5227 32.4051 15.8906 33.2886 16.2249 34.2449C16.2447 34.3 16.31 34.3216 16.3594 34.2921C16.8025 34.0166 17.3267 33.8572 17.8864 33.8572H28.6547C29.2462 33.8572 29.796 34.0343 30.255 34.3373C30.3044 34.3688 30.3716 34.3449 30.3894 34.2898Z" fill="#1F3C88"/>
</svg>
