<svg width="16" height="16" viewBox="0 0 16 16" fill="none" xmlns="http://www.w3.org/2000/svg">
<path d="M8.82256 0.000984283C9.40633 -0.00125582 9.9901 0.00461128 10.5737 0.0185837L10.7289 0.0241835C10.9081 0.0305833 11.0849 0.038583 11.2985 0.0481827C12.1496 0.0881813 12.7304 0.222577 13.24 0.42017C13.768 0.623363 14.2128 0.898554 14.6576 1.34334C15.0642 1.74301 15.379 2.22647 15.5799 2.76009C15.7775 3.26967 15.9119 3.85125 15.9519 4.70242C15.9615 4.91522 15.9695 5.09281 15.9759 5.27201L15.9807 5.4272C15.9949 6.01053 16.0011 6.59404 15.9991 7.17754L15.9999 7.77432V8.82228C16.0019 9.40606 15.9958 9.98982 15.9815 10.5734L15.9767 10.7286C15.9703 10.9078 15.9623 11.0846 15.9527 11.2982C15.9127 12.1494 15.7767 12.7302 15.5799 13.2397C15.3797 13.7739 15.0648 14.2578 14.6576 14.6573C14.2575 15.0639 13.7738 15.3787 13.24 15.5797C12.7304 15.7772 12.1496 15.9116 11.2985 15.9516C11.0849 15.9612 10.9081 15.9692 10.7289 15.9756L10.5737 15.9804C9.9901 15.9947 9.40633 16.0008 8.82256 15.9988L8.22578 15.9996H7.17862C6.59485 16.0016 6.01108 15.9955 5.42748 15.9812L5.27228 15.9764C5.08238 15.9696 4.89251 15.9616 4.7027 15.9524C3.85153 15.9124 3.27075 15.7764 2.76037 15.5797C2.22653 15.3791 1.74299 15.0643 1.34362 14.6573C0.936466 14.2575 0.62142 13.7738 0.420447 13.2397C0.222854 12.7302 0.0884585 12.1494 0.0484599 11.2982C0.0395505 11.1084 0.0315507 10.9185 0.0244607 10.7286L0.020461 10.5734C0.00571235 9.98983 -0.000954805 9.40606 0.000461585 8.82228V7.17754C-0.00177111 6.59404 0.00409598 6.01054 0.018061 5.4272L0.0236608 5.27201C0.0300606 5.09281 0.0380603 4.91522 0.04766 4.70242C0.0876586 3.85045 0.222054 3.27047 0.419647 2.76009C0.620739 2.2262 0.936401 1.74288 1.34442 1.34414C1.74352 0.936754 2.22675 0.621421 2.76037 0.42017C3.27075 0.222577 3.85073 0.0881813 4.7027 0.0481827L5.27228 0.0241835L5.42748 0.0201838C6.0108 0.00544252 6.59431 -0.00122464 7.17782 0.000184368L8.82256 0.000984283ZM8.00019 4.00085C7.47021 3.99335 6.94403 4.09126 6.45222 4.28889C5.96042 4.48652 5.51279 4.77992 5.13536 5.15205C4.75793 5.52418 4.45823 5.96761 4.25367 6.45657C4.0491 6.94554 3.94376 7.47028 3.94376 8.00031C3.94376 8.53034 4.0491 9.05509 4.25367 9.54405C4.45823 10.033 4.75793 10.4764 5.13536 10.8486C5.51279 11.2207 5.96042 11.5141 6.45222 11.7117C6.94403 11.9094 7.47021 12.0073 8.00019 11.9998C9.06102 11.9998 10.0784 11.5784 10.8285 10.8282C11.5786 10.0781 12.0001 9.06074 12.0001 7.99991C12.0001 6.93908 11.5786 5.9217 10.8285 5.17158C10.0784 4.42146 9.06102 4.00085 8.00019 4.00085ZM8.00019 5.60079C8.31898 5.59492 8.63575 5.65263 8.93199 5.77055C9.22823 5.88848 9.49801 6.06425 9.72555 6.28761C9.9531 6.51096 10.1339 6.77742 10.2573 7.07142C10.3807 7.36541 10.4443 7.68106 10.4443 7.9999C10.4444 8.31875 10.3809 8.63442 10.2576 8.92846C10.1343 9.22249 9.9536 9.48901 9.72612 9.71244C9.49865 9.93587 9.22894 10.1117 8.93274 10.2298C8.63653 10.3478 8.31979 10.4056 8.00099 10.3998C7.36449 10.3998 6.75406 10.147 6.30399 9.69691C5.85392 9.24684 5.60107 8.63641 5.60107 7.99991C5.60107 7.36341 5.85392 6.75299 6.30399 6.30291C6.75406 5.85284 7.36449 5.59999 8.00099 5.59999L8.00019 5.60079ZM12.2 2.80089C11.942 2.81122 11.6979 2.92101 11.519 3.10726C11.34 3.29351 11.2401 3.54177 11.2401 3.80006C11.2401 4.05834 11.34 4.3066 11.519 4.49285C11.6979 4.6791 11.942 4.78889 12.2 4.79922C12.4653 4.79922 12.7196 4.69387 12.9071 4.50634C13.0947 4.31881 13.2 4.06446 13.2 3.79925C13.2 3.53405 13.0947 3.2797 12.9071 3.09217C12.7196 2.90464 12.4653 2.79929 12.2 2.79929V2.80089Z" fill="#1F3C88"/>
</svg>
