<svg  viewBox="0 0 50 48" xmlns="http://www.w3.org/2000/svg">
<path d="M41.9422 22.6038L36.8768 27.0102C36.3668 26.3636 35.6951 25.8522 34.9275 25.5264L38.1293 22.7442C39.2201 21.7917 40.8261 21.7666 41.9422 22.6038ZM49.2499 22.7442C48.154 21.5059 46.2248 21.3756 44.9774 22.4634L37.7556 28.7347C37.8667 29.1458 37.9323 29.5769 37.9323 30.0231C37.9323 32.7151 35.7203 34.9108 33.0084 34.9108H19.9435C19.4889 34.9108 19.1152 34.5398 19.1152 34.0887V33.853C19.1152 33.4019 19.4889 33.0309 19.9435 33.0309H33.0084C34.6042 33.0309 35.9173 31.7927 36.0284 30.2386C36.0334 30.2136 36.0335 30.1885 36.0335 30.1584C36.0385 30.1033 36.0385 30.0532 36.0385 29.998V29.993C36.0335 29.2761 35.7658 28.6094 35.3264 28.0931V28.088C35.3113 28.073 35.2961 28.053 35.281 28.0379L35.2709 28.0229C35.2608 28.0129 35.2507 27.9978 35.2355 27.9878L35.2103 27.9627L35.1901 27.9427C35.1749 27.9276 35.1648 27.9176 35.1497 27.9026L35.1396 27.8925C34.6749 27.4364 34.0689 27.1255 33.3922 27.0403H33.3871C33.3619 27.0353 33.3417 27.0353 33.3164 27.0303H33.3063C33.2861 27.0253 33.2609 27.0253 33.2407 27.0203H33.2205C33.2003 27.0153 33.1801 27.0153 33.1599 27.0153C33.1498 27.0102 33.1346 27.0102 33.1245 27.0102H33.0841C33.0589 27.0052 33.0336 27.0052 33.0033 27.0052H16.1811C13.7923 27.0052 11.7369 27.8825 10.0955 29.607L8.25222 31.537L14.7316 41.9641H28.5743C30.6853 41.9641 32.5034 41.2874 34.0942 39.9038C39.0535 35.5926 44.0128 31.2864 48.9721 26.9752C50.2246 25.8923 50.3508 23.9824 49.2499 22.7442ZM5.62611 30.9004C5.39885 30.5344 4.90393 30.4191 4.53526 30.6447L0.373886 33.1913C0.00522013 33.4169 -0.110935 33.9082 0.116325 34.2741L8.41888 47.6289C8.64614 47.9948 9.14106 48.1101 9.51477 47.8845L13.6711 45.3379C14.0398 45.1123 14.1559 44.621 13.9287 44.2551L5.62611 30.9004ZM21.2919 15.1494C21.2919 11.169 24.5594 7.9206 28.5743 7.9206C32.5892 7.9206 35.8567 11.169 35.8567 15.1494C35.8567 19.1298 32.5892 22.3782 28.5743 22.3782C24.5594 22.3782 21.2919 19.1298 21.2919 15.1494ZM24.4382 15.1494C24.4382 15.5905 24.7967 15.9515 25.2411 15.9515H27.7612V18.453C27.7612 18.8941 28.1198 19.2551 28.5642 19.2551C29.0086 19.2551 29.3722 18.8941 29.3722 18.453V15.9515H31.8923C32.3367 15.9515 32.7003 15.5905 32.7003 15.1494C32.7003 14.7083 32.3417 14.3473 31.8923 14.3473H29.3722V11.8458C29.3722 11.4047 29.0137 11.0437 28.5642 11.0437C28.1147 11.0437 27.7612 11.4047 27.7612 11.8458V14.3473H25.2411C24.8018 14.3473 24.4382 14.7083 24.4382 15.1494ZM35.2658 5.31382C35.2658 2.38621 37.6697 0 40.6241 0C43.5734 0 45.9773 2.38621 45.9773 5.31382C45.9773 8.24143 43.5734 10.6276 40.6241 10.6276C37.6697 10.6276 35.2658 8.24143 35.2658 5.31382ZM37.594 5.31382C37.594 5.75497 37.9576 6.11089 38.402 6.11089H39.8161V7.51454C39.8161 7.95569 40.1797 8.31162 40.6241 8.31162C41.0685 8.31162 41.4271 7.95569 41.4271 7.51454V6.11089H42.8411C43.2856 6.11089 43.6441 5.75497 43.6441 5.31382C43.6441 4.87267 43.2856 4.51173 42.8411 4.51173H41.4271V3.10808C41.4271 2.66694 41.0635 2.306 40.6241 2.306C40.1797 2.306 39.8161 2.66694 39.8161 3.10808V4.51173H38.402C37.9576 4.51173 37.594 4.87267 37.594 5.31382ZM11.1712 5.31382C11.1712 2.38621 13.5751 0 16.5245 0C19.4738 0 21.8777 2.38621 21.8777 5.31382C21.8777 8.24143 19.4738 10.6276 16.5245 10.6276C13.5802 10.6276 11.1712 8.24143 11.1712 5.31382ZM13.5044 5.31382C13.5044 5.75497 13.863 6.11089 14.3074 6.11089H15.7215V7.51454C15.7215 7.95569 16.0801 8.31162 16.5245 8.31162C16.9689 8.31162 17.3325 7.95569 17.3325 7.51454V6.11089H18.7415C19.1859 6.11089 19.5495 5.75497 19.5495 5.31382C19.5495 4.87267 19.1859 4.51173 18.7415 4.51173H17.3325V3.10808C17.3325 2.66694 16.9689 2.306 16.5245 2.306C16.0801 2.306 15.7215 2.66694 15.7215 3.10808V4.51173H14.3074C13.863 4.51173 13.5044 4.87267 13.5044 5.31382Z" />
</svg>
