<svg  viewBox="0 0 42 41" xmlns="http://www.w3.org/2000/svg">
<path d="M9.24414 18.9445C14.3262 18.9445 18.4883 14.8262 18.4883 9.70033C18.4883 4.57443 14.3262 0.5 9.24414 0.5C4.16205 0.5 0 4.61824 0 9.74414C0 14.87 4.11824 18.9445 9.24414 18.9445ZM8.45554 4.92492V3.78583C8.45554 3.6544 8.58697 3.52296 8.7184 3.52296H9.76987C9.9013 3.52296 10.0327 3.6544 10.0327 3.78583V4.92492C11.4347 4.96873 12.6176 6.06401 12.749 7.42215C12.749 7.55358 12.6614 7.68502 12.4862 7.68502H11.4347C11.3033 7.68502 11.2156 7.59739 11.1718 7.46596C11.0842 6.89642 10.5585 6.41449 9.94512 6.41449H8.54316C7.88599 6.41449 7.27264 6.94023 7.27264 7.59739C7.22883 8.29837 7.79837 8.91173 8.54316 8.91173H9.9013C11.4347 8.91173 12.749 10.1822 12.749 11.7156C12.749 13.2052 11.5223 14.4319 10.0327 14.4757V15.6148C10.0327 15.7463 9.9013 15.8777 9.76987 15.8777H8.7184C8.58697 15.8777 8.45554 15.7463 8.45554 15.6148V14.4757C7.05358 14.4319 5.87069 13.3366 5.73925 11.9785C5.73925 11.8471 5.82687 11.7156 6.00212 11.7156H7.05358C7.18502 11.7156 7.27264 11.8033 7.31645 11.9347C7.40407 12.5042 7.92981 12.9862 8.54316 12.9862H9.94512C10.6023 12.9862 11.2156 12.4604 11.2156 11.8033C11.2594 11.1023 10.6899 10.4889 9.94512 10.4889H8.54316C7.00977 10.4889 5.69544 9.2184 5.69544 7.68502C5.73925 6.19544 6.96596 4.96873 8.45554 4.92492Z" />
<path d="M3.98644 26.8306C18.0498 26.6992 30.4483 19.2951 36.9324 7.37853L38.1153 10.9272C38.3781 11.672 39.0791 12.1539 39.8239 12.1539C39.9991 12.1539 40.2182 12.1101 40.3934 12.0663C41.3573 11.7596 41.8392 10.752 41.5325 9.78814L38.9915 2.16501C38.6848 1.20117 37.6334 0.719245 36.7133 1.02592L29.0902 3.56696C28.1263 3.87364 27.6444 4.8813 27.9511 5.84514C28.2578 6.80898 29.2654 7.29091 30.2293 6.98423L33.6904 5.84514C27.8197 16.4912 16.604 23.1067 3.98644 23.1943C2.97879 23.1943 2.19019 24.0267 2.19019 25.0344C2.19019 26.042 3.0226 26.8306 3.98644 26.8306Z" />
<path d="M8.32202 31.606H3.72186C3.02088 31.606 2.40752 32.1755 2.40752 32.9203V39.1415C2.40752 39.8424 2.97707 40.4558 3.72186 40.4558H8.27821C8.97918 40.4558 9.59254 39.8862 9.59254 39.1415V32.9203C9.59254 32.1755 9.023 31.606 8.32202 31.606Z" />
<path d="M18.7906 29.6782H14.1905C13.4895 29.6782 12.8761 30.2478 12.8761 30.9926V39.1414C12.8761 39.8424 13.4457 40.4557 14.1905 40.4557H18.7468C19.4478 40.4557 20.0612 39.8862 20.0612 39.1414V30.9926C20.0612 30.2916 19.4916 29.6782 18.7906 29.6782Z" />
<path d="M29.265 25.9106H24.6649C23.9639 25.9106 23.3505 26.4802 23.3505 27.225V39.1854C23.3505 39.8864 23.9201 40.4997 24.6649 40.4997H29.2212C29.9222 40.4997 30.5356 39.9302 30.5356 39.1854V27.1812C30.5794 26.4802 29.966 25.9106 29.265 25.9106Z" />
<path d="M39.7362 18.2876H35.1798C34.4788 18.2876 33.8655 18.8571 33.8655 19.6019V39.1855C33.8655 39.8865 34.435 40.4998 35.1798 40.4998H39.7362C40.4371 40.4998 41.0505 39.9303 41.0505 39.1855V19.5581C41.0505 18.8571 40.4371 18.2876 39.7362 18.2876Z" />
</svg>
