<svg width="18" height="11" viewBox="0 0 18 11" xmlns="http://www.w3.org/2000/svg">
<path d="M10.9854 5.49986L16.7147 10.0499L17.3337 10.542V0.457672L16.7147 0.949846L10.9854 5.49986Z" />
<path d="M10.4899 5.89594L8.85874 7.18973C8.80303 7.23307 8.73493 7.25472 8.66684 7.25472C8.59875 7.25472 8.53064 7.23307 8.47493 7.18973L6.84372 5.89594L1.19798 10.381L0.417969 11H16.9157L16.1357 10.381L10.4899 5.89594Z"/>
<path d="M16.9157 0H0.417969L1.19798 0.619051L7.03563 5.25884C7.04492 5.26503 7.0542 5.27123 7.0635 5.28052L8.66684 6.55263L10.2702 5.28052C10.2795 5.27123 10.2887 5.26503 10.298 5.25884L16.1357 0.619051L16.9157 0Z" />
<path d="M6.34837 5.49986L0.619051 0.949846L0 0.457672V10.542L0.619051 10.0499L6.34837 5.49986Z" />
</svg>
