<svg width="30" height="49" viewBox="0 0 30 49" fill="none" xmlns="http://www.w3.org/2000/svg">
<path d="M11.6147 31.1308C11.6147 31.1308 13.4083 43.7938 13.9542 47.7203C14.0135 48.147 14.3035 48.5001 14.734 48.5001C15.1645 48.5001 15.4539 48.147 15.5138 47.7203C15.9942 44.2885 17.8533 31.1308 17.8533 31.1308C17.8533 31.1177 17.8495 31.1015 17.8495 31.0884H11.6185C11.6185 31.1015 11.6147 31.1177 11.6147 31.1308Z" fill="#1F3C88"/>
<path d="M23.0825 19.157V8.29761H6.23852V19.1564C2.6102 20.4446 0 23.9026 0 27.9683C0 28.8298 0.698091 29.5279 1.55963 29.5279H27.7614C27.7664 29.5279 27.7708 29.5279 27.7739 29.5279C28.6354 29.5279 29.3335 28.8298 29.3335 27.9683C29.3335 23.8952 26.6466 20.4222 23.0825 19.157Z" fill="#1F3C88"/>
<path d="M6.2384 6.73852H23.0824C24.234 6.73852 25.2285 6.10718 25.7693 5.17889C26.0376 4.71849 26.2017 4.19071 26.2017 3.61926C26.2017 1.89681 24.8055 0.5 23.0824 0.5H6.2384C4.51532 0.5 3.11914 1.89681 3.11914 3.61926C3.11914 4.19071 3.28384 4.71849 3.55147 5.17889C4.09235 6.10781 5.0874 6.73852 6.2384 6.73852Z" fill="#1F3C88"/>
</svg>
