<svg  viewBox="0 0 32 32" xmlns="http://www.w3.org/2000/svg">
<path d="M23.3467 12.3603C21.64 5.33366 17.1733 2.85366 16.9867 2.74699C16.8882 2.69447 16.7783 2.66699 16.6667 2.66699C16.5551 2.66699 16.4452 2.69447 16.3467 2.74699C16.12 2.88033 11.64 5.41366 9.96 12.387C8.34667 13.707 4 17.547 4 20.667C4 20.8438 4.07024 21.0134 4.19526 21.1384C4.32029 21.2634 4.48986 21.3337 4.66667 21.3337H9.33333V23.3337C9.33333 23.5105 9.40357 23.68 9.5286 23.8051C9.65362 23.9301 9.82319 24.0003 10 24.0003H23.3333C23.5101 24.0003 23.6797 23.9301 23.8047 23.8051C23.9298 23.68 24 23.5105 24 23.3337V21.3337H28.6667C28.8435 21.3337 29.0131 21.2634 29.1381 21.1384C29.2631 21.0134 29.3333 20.8438 29.3333 20.667C29.3333 17.5337 24.9467 13.6803 23.3467 12.3603ZM18 20.0003H15.3333C15.1565 20.0003 14.987 19.9301 14.8619 19.8051C14.7369 19.68 14.6667 19.5105 14.6667 19.3337C14.6667 19.1568 14.7369 18.9873 14.8619 18.8623C14.987 18.7372 15.1565 18.667 15.3333 18.667H18C18.1768 18.667 18.3464 18.7372 18.4714 18.8623C18.5964 18.9873 18.6667 19.1568 18.6667 19.3337C18.6667 19.5105 18.5964 19.68 18.4714 19.8051C18.3464 19.9301 18.1768 20.0003 18 20.0003ZM16.6667 17.3337C16.0074 17.3337 15.3629 17.1382 14.8148 16.7719C14.2666 16.4056 13.8394 15.885 13.5871 15.2759C13.3348 14.6669 13.2688 13.9966 13.3974 13.35C13.526 12.7034 13.8435 12.1095 14.3096 11.6433C14.7758 11.1771 15.3698 10.8597 16.0164 10.731C16.663 10.6024 17.3332 10.6684 17.9423 10.9207C18.5514 11.173 19.072 11.6003 19.4382 12.1484C19.8045 12.6966 20 13.3411 20 14.0003C20 14.8844 19.6488 15.7322 19.0237 16.3573C18.3986 16.9825 17.5507 17.3337 16.6667 17.3337ZM22 25.3337C21.8232 25.3337 21.6536 25.4039 21.5286 25.5289C21.4036 25.6539 21.3333 25.8235 21.3333 26.0003V27.3337C21.3333 27.5105 21.4036 27.68 21.5286 27.8051C21.6536 27.9301 21.8232 28.0003 22 28.0003C22.1768 28.0003 22.3464 27.9301 22.4714 27.8051C22.5964 27.68 22.6667 27.5105 22.6667 27.3337V26.0003C22.6667 25.8235 22.5964 25.6539 22.4714 25.5289C22.3464 25.4039 22.1768 25.3337 22 25.3337ZM11.3333 25.3337C11.1565 25.3337 10.987 25.4039 10.8619 25.5289C10.7369 25.6539 10.6667 25.8235 10.6667 26.0003V27.3337C10.6667 27.5105 10.7369 27.68 10.8619 27.8051C10.987 27.9301 11.1565 28.0003 11.3333 28.0003C11.5101 28.0003 11.6797 27.9301 11.8047 27.8051C11.9298 27.68 12 27.5105 12 27.3337V26.0003C12 25.8235 11.9298 25.6539 11.8047 25.5289C11.6797 25.4039 11.5101 25.3337 11.3333 25.3337ZM16.2267 29.1603C16.3455 29.2729 16.503 29.3356 16.6667 29.3356C16.8303 29.3356 16.9878 29.2729 17.1067 29.1603C18.236 28.0981 19.1032 26.7881 19.64 25.3337H13.6933C14.2301 26.7881 15.0974 28.0981 16.2267 29.1603Z" />
</svg>
