<svg  viewBox="0 0 50 50" xmlns="http://www.w3.org/2000/svg">
<path d="M10.0113 31.6987C12.9555 34.6462 16.8763 36.4157 21.035 36.6737C25.1937 36.9317 29.3033 35.6604 32.5895 33.0994L43.8967 44.4033C44.2977 44.7905 44.8348 45.0048 45.3923 44.9999C45.9497 44.9951 46.483 44.7715 46.8772 44.3774C47.2715 43.9833 47.4951 43.4502 47.4999 42.8929C47.5048 42.3356 47.2905 41.7986 46.9031 41.3977L35.596 30.0939C38.2714 26.6614 39.5363 22.3379 39.1327 18.0051C38.7291 13.6724 36.6874 9.65674 33.424 6.77714C30.1606 3.89754 25.9213 2.3709 21.5707 2.50856C17.2202 2.64623 13.0859 4.43783 10.0113 7.51798C8.42255 9.10542 7.16227 10.9902 6.30242 13.0647C5.44257 15.1392 5 17.3628 5 19.6083C5 21.8539 5.44257 24.0774 6.30242 26.1519C7.16227 28.2264 8.42255 30.1112 10.0113 31.6987ZM13.0177 10.5278C15.1196 8.42656 17.8853 7.11889 20.8435 6.82759C23.8017 6.53629 26.7694 7.27939 29.2411 8.93027C31.7127 10.5812 33.5352 13.0377 34.3983 15.8814C35.2613 18.725 35.1114 21.7798 33.974 24.5254C32.8367 27.2709 30.7823 29.5373 28.1609 30.9383C25.5395 32.3394 22.5132 32.7885 19.5977 32.2091C16.6823 31.6296 14.058 30.0576 12.1719 27.7607C10.2859 25.4638 9.25477 22.5842 9.25432 19.6126C9.24849 17.924 9.57816 16.251 10.2242 14.6907C10.8702 13.1305 11.8198 11.714 13.0177 10.5236V10.5278Z" />
</svg>
