<svg viewBox="0 0 54 53"  xmlns="http://www.w3.org/2000/svg">
<path d="M32.7894 52.4973H52.6895C53.4098 52.4973 54 51.9004 54 51.1719V28.6002C54 27.8717 53.4098 27.2748 52.6895 27.2748H45.1611V35.8902C45.1611 36.6324 44.2479 36.9615 43.7766 36.41L41.3575 33.9837L38.8958 36.4531C38.3977 36.9547 37.5562 36.587 37.5562 35.8902L37.5539 27.2748H34.4774C34.3899 28.1667 33.9276 28.9497 33.2499 29.4559V50.8132C33.2499 51.4283 33.0816 52.0048 32.7876 52.4972L32.7894 52.4973ZM32.9173 3.8341C34.7372 4.34022 36.3664 5.31165 37.6746 6.61442L39.2499 5.69524C39.9545 5.28217 40.8656 5.52956 41.274 6.24449L42.699 8.7411C43.1074 9.45378 42.8628 10.3752 42.1559 10.7883L40.5828 11.7075C41.0473 13.5209 41.0473 15.4524 40.5828 17.2658L42.1559 18.185C42.8605 18.598 43.1051 19.5173 42.699 20.2322L41.274 22.7288C40.8656 23.4415 39.9567 23.6888 39.2499 23.278L37.6746 22.3588C36.3664 23.6616 34.7372 24.633 32.9173 25.1392V26.9776C32.9173 27.8015 32.2508 28.4755 31.4363 28.4755H28.5864C27.7718 28.4755 27.1054 27.8014 27.1054 26.9776V25.1414C25.2855 24.6353 23.6564 23.6639 22.3481 22.3611L20.7728 23.2803C20.0682 23.6934 19.1571 23.446 18.7487 22.731L17.3238 20.2344C16.9154 19.5217 17.16 18.6003 17.8668 18.1872L19.4399 17.2681C18.9754 15.4546 18.9754 13.5232 19.4399 11.7097L17.8668 10.7906C17.1622 10.3775 16.9176 9.45826 17.3238 8.74337L18.7487 6.24676C19.1572 5.53407 20.066 5.28673 20.7728 5.69751L22.3481 6.61669C23.6541 5.31391 25.2855 4.3425 27.1054 3.83637V1.99794C27.1054 1.17405 27.7719 0.5 28.5864 0.5H31.4363C32.2509 0.5 32.9173 1.17411 32.9173 1.99794V3.8341ZM30.0113 7.71291C26.3154 7.71291 23.3176 10.7452 23.3176 14.483C23.3176 18.2211 26.3157 21.2531 30.0113 21.2531C33.7095 21.2531 36.705 18.2209 36.705 14.483C36.705 10.7449 33.707 7.71291 30.0113 7.71291ZM30.0113 9.3062C27.1839 9.3062 24.8927 11.6235 24.8927 14.4833C24.8927 17.343 27.1839 19.6603 30.0113 19.6603C32.8388 19.6603 35.13 17.343 35.13 14.4833C35.13 11.6235 32.8388 9.3062 30.0113 9.3062ZM1.66485 52.4973H30.0136C30.9292 52.4973 31.6787 51.7393 31.6787 50.8133V30.0509C31.6001 30.0577 31.5193 30.06 31.4386 30.06H28.5887C26.9057 30.06 25.5324 28.671 25.5324 26.9688V26.2833C24.3094 25.809 23.1694 25.1394 22.1529 24.3065C21.4976 24.6878 21.0354 25.0055 20.2388 25.0578V31.4014C20.2388 32.1435 19.3255 32.4727 18.8542 31.9211L15.6206 28.6756L12.3443 31.962C11.8461 32.4636 11.0047 32.0959 11.0047 31.3991L11.0024 20.4549L1.66503 20.4595C0.749449 20.4595 0 21.2175 0 22.1435V50.816C0 51.742 0.749507 52.5 1.66503 52.5L1.66485 52.4973ZM25.662 46.4419C26.0974 46.4419 26.4497 46.7982 26.4497 47.2385C26.4497 47.6788 26.0974 48.0352 25.662 48.0352H17.3909C16.9555 48.0352 16.6032 47.6788 16.6032 47.2385C16.6032 46.7982 16.9555 46.4419 17.3909 46.4419H25.662ZM16.0937 21.2532H12.5774V29.4922L15.066 26.9956C15.3711 26.6869 15.867 26.6869 16.1723 26.9956L18.6609 29.4922V24.735C18.1425 24.474 17.6937 24.0633 17.384 23.5208L16.0914 21.2557L16.0937 21.2532ZM49.2646 47.5603C49.6999 47.5603 50.0522 47.9167 50.0522 48.357C50.0522 48.7973 49.6999 49.1536 49.2646 49.1536H42.7524C42.3171 49.1536 41.9648 48.7973 41.9648 48.357C41.9648 47.9167 42.3171 47.5603 42.7524 47.5603H49.2646ZM43.5872 28.071V33.9812L41.9132 32.3017C41.6058 31.993 41.1121 31.993 40.8069 32.3017L39.1328 33.9812V28.071H43.5894H43.5872Z" />
</svg>
