<svg  viewBox="0 0 62 60" xmlns="http://www.w3.org/2000/svg">
<path d="M34.1772 28.2188C35.3624 29.7276 35.9207 31.6255 35.7386 33.5263C35.5566 35.4272 34.6477 37.1881 33.1971 38.4507C31.7465 39.7133 29.8631 40.3828 27.9303 40.3227C25.9974 40.2627 24.1604 39.4778 22.793 38.1277C21.4256 36.7776 20.6306 34.9638 20.5698 33.0554C20.509 31.1471 21.187 29.2875 22.4658 27.8553C23.7446 26.423 25.5281 25.5257 27.4533 25.3459C29.3786 25.1662 31.3008 25.7174 32.8289 26.8876L38.8868 20.9157C35.7393 18.1519 31.6248 16.708 27.4166 16.8904C23.2085 17.0728 19.238 18.8672 16.3479 21.8928C13.4578 24.9183 11.8757 28.9367 11.9373 33.0952C11.9989 37.2536 13.6994 41.2246 16.6779 44.1654C19.6563 47.1062 23.6783 48.7852 27.89 48.846C32.1018 48.9068 36.1718 47.3447 39.2361 44.4912C42.3004 41.6377 44.1178 37.7174 44.3026 33.5626C44.4873 29.4077 43.0249 25.3453 40.2256 22.2376L34.1772 28.2188Z" />
<path d="M46.2173 32.8125C46.222 36.8987 44.8052 40.8624 42.2041 44.0406C39.603 47.2188 35.9754 49.4187 31.9281 50.2721C27.8809 51.1255 23.6595 50.5806 19.9704 48.7288C16.2814 46.8769 13.3483 43.8303 11.662 40.0987C9.97575 36.3672 9.63856 32.177 10.7069 28.2294C11.7752 24.2817 14.1842 20.8161 17.5308 18.4123C20.8774 16.0084 24.9586 14.8123 29.0916 15.024C33.2246 15.2356 37.1585 16.8423 40.2353 19.575L45.6096 14.2782C40.6791 9.75641 34.148 7.326 27.4213 7.50971C20.6945 7.69341 14.3095 10.4766 9.63966 15.2605C4.96983 20.0444 2.38828 26.4469 2.45031 33.0908C2.51234 39.7346 5.21299 46.0891 9.97134 50.7872C14.7297 55.4853 21.1656 58.1518 27.8946 58.213C34.6237 58.2742 41.1082 55.7254 45.9535 51.1147C50.7988 46.5039 53.6176 40.1997 53.8036 33.5581C53.9897 26.9165 51.5281 20.4681 46.9484 15.6L41.5836 20.9063C44.5688 24.1712 46.22 28.4141 46.2173 32.8125Z" />
<path d="M31.4719 28.2286C30.3054 27.4107 28.8704 27.0552 27.451 27.2325C26.0317 27.4099 24.7316 28.1072 23.8083 29.1862C22.885 30.2653 22.4059 31.6474 22.466 33.0587C22.526 34.47 23.1207 35.8076 24.1324 36.8064C25.144 37.8052 26.4987 38.3925 27.9281 38.4517C29.3576 38.511 30.7574 38.038 31.8503 37.1264C32.9431 36.2148 33.6494 34.9311 33.829 33.5298C34.0086 32.1284 33.6486 30.7115 32.8202 29.5598L28.8512 33.4786C28.6712 33.6528 28.4291 33.7505 28.177 33.7505C27.9249 33.7505 27.6829 33.6528 27.5029 33.4786C27.325 33.3016 27.2252 33.0623 27.2252 32.8129C27.2252 32.5636 27.325 32.3243 27.5029 32.1473L31.4719 28.2286ZM51.7346 14.8317C51.8283 14.8684 51.9281 14.8874 52.029 14.8879C52.1546 14.8875 52.2789 14.8624 52.3946 14.8141C52.5103 14.7658 52.6152 14.6953 52.7031 14.6067L59.2358 8.16607C59.3588 8.0406 59.445 7.88449 59.4852 7.71441C59.5253 7.54433 59.5179 7.36668 59.4637 7.20045C59.4085 7.03479 59.3071 6.88792 59.171 6.77677C59.0349 6.66563 58.8697 6.59475 58.6946 6.57232L55.2478 6.08482L54.7541 2.6817C54.7314 2.50877 54.6596 2.34571 54.547 2.21134C54.4344 2.07698 54.2857 1.97678 54.1179 1.92232C53.9495 1.86882 53.7696 1.86149 53.5973 1.90112C53.4251 1.94075 53.267 2.02585 53.1399 2.14732L46.6167 8.59732C46.4919 8.7197 46.4044 8.87419 46.3641 9.04324C46.3238 9.21228 46.3324 9.38909 46.3888 9.55357L47.3858 12.5161L45.6102 14.2786C46.0755 14.7004 46.5217 15.1411 46.949 15.6004L48.7341 13.8473L51.7346 14.8317Z" />
</svg>
