<svg width="18" height="17" viewBox="0 0 18 17" xmlns="http://www.w3.org/2000/svg">
<path fill-rule="evenodd" clip-rule="evenodd" d="M12.8146 16.9826C11.5909 16.9376 8.12305 16.4583 4.49117 12.8273C0.86013 9.19538 0.381713 5.72835 0.335826 4.50384C0.267845 2.63776 1.69715 0.825216 3.34824 0.117364C3.54706 0.0315094 3.76479 -0.00117791 3.98006 0.0225092C4.19533 0.0461963 4.40074 0.125444 4.57614 0.252476C5.93576 1.2433 6.8739 2.74228 7.67948 3.9209C7.85672 4.17985 7.93251 4.49496 7.89239 4.80618C7.85227 5.11741 7.69906 5.40299 7.46194 5.60853L5.80405 6.83983C5.72395 6.89767 5.66757 6.98262 5.64538 7.07889C5.62319 7.17517 5.63669 7.27622 5.68338 7.36329C6.05898 8.04565 6.72689 9.06196 7.49168 9.82675C8.25731 10.5915 9.32122 11.3036 10.0512 11.7217C10.1427 11.7731 10.2504 11.7875 10.3522 11.7619C10.454 11.7362 10.5421 11.6726 10.5984 11.5841L11.6776 9.94147C11.876 9.67791 12.1687 9.50135 12.4944 9.44876C12.8201 9.39617 13.1534 9.47164 13.4247 9.65935C14.6203 10.487 16.0156 11.409 17.0371 12.7168C17.1744 12.8935 17.2618 13.1038 17.29 13.3258C17.3183 13.5478 17.2864 13.7733 17.1977 13.9787C16.4864 15.6383 14.6866 17.0514 12.8146 16.9826Z" />
</svg>
