<svg  viewBox="0 0 50 48" xmlns="http://www.w3.org/2000/svg">
<path d="M18.5282 5.98347C18.2878 5.72405 18.2013 5.35896 18.3167 5.02266C18.4321 4.68636 18.7206 4.43657 19.0668 4.3789L22.5288 3.79281L24.1348 0.497209C24.4522 -0.165736 25.5389 -0.165736 25.8659 0.497209L27.4719 3.79281L30.9339 4.3789C31.2801 4.43655 31.5686 4.68636 31.684 5.02266C31.7995 5.35896 31.7129 5.73363 31.4725 5.98347L28.9721 8.62572L29.5203 12.3152C29.578 12.6707 29.4241 13.0359 29.126 13.2376C28.9625 13.3529 28.7702 13.4106 28.5682 13.4106C28.4143 13.4106 28.2605 13.3721 28.1162 13.2953L25.0004 11.6331L21.8846 13.2953C21.5672 13.4682 21.173 13.4394 20.8748 13.228C20.5767 13.0166 20.4228 12.6611 20.4805 12.3056L21.0287 8.61611L18.5283 5.97386L18.5282 5.98347ZM7.52668 13.574L10.3252 14.0448L11.6234 16.7159C11.7869 17.0426 12.1235 17.254 12.4889 17.254C12.8543 17.254 13.1909 17.0426 13.3544 16.7159L14.6527 14.0448L17.4512 13.574C17.7974 13.5164 18.0858 13.2666 18.2013 12.9303C18.3168 12.594 18.2301 12.2193 17.9897 11.9695L15.9606 9.82684L16.403 6.82911C16.4606 6.47361 16.3068 6.10848 16.0087 5.90673C15.7105 5.69535 15.3259 5.67613 14.9989 5.83947L12.4793 7.18461L9.95969 5.83947C9.64234 5.66652 9.24808 5.69534 8.94995 5.90673C8.65181 6.11811 8.49796 6.47361 8.55567 6.82911L8.99804 9.82684L6.96889 11.9695C6.72847 12.2289 6.64192 12.594 6.75732 12.9303C6.87272 13.2666 7.16122 13.5164 7.50746 13.574H7.52668ZM32.5302 13.574L35.3287 14.0448L36.627 16.7159C36.7905 17.0426 37.127 17.254 37.4925 17.254C37.8579 17.254 38.1945 17.0426 38.3579 16.7159L39.6562 14.0448L42.4547 13.574C42.8009 13.5164 43.0894 13.2666 43.2048 12.9303C43.3203 12.594 43.2337 12.2193 42.9933 11.9695L40.9641 9.82684L41.4065 6.82911C41.4642 6.47361 41.3103 6.10848 41.0122 5.90673C40.7141 5.69535 40.3294 5.67613 40.0025 5.83947L37.4828 7.18461L34.9632 5.83947C34.6459 5.66652 34.2516 5.69534 33.9535 5.90673C33.6553 6.11811 33.5015 6.47361 33.5592 6.82911L34.0016 9.82684L31.9724 11.9695C31.732 12.2289 31.6454 12.594 31.7608 12.9303C31.8762 13.2666 32.1647 13.5164 32.511 13.574H32.5302ZM26.9236 31.6662C26.9236 30.6093 26.0582 29.7446 25.0003 29.7446C23.9424 29.7446 23.0769 30.6093 23.0769 31.6662C23.0769 32.7231 23.9424 33.5878 25.0003 33.5878C26.0582 33.5878 26.9236 32.7231 26.9236 31.6662ZM25.0003 36.4703C23.2019 36.4703 21.5767 37.4791 20.7593 39.0356C21.9807 39.8427 23.4328 40.3135 25.0003 40.3135C26.5678 40.3135 28.0103 39.8427 29.2317 39.0452C29.0105 38.6225 28.7508 38.2189 28.4046 37.8923C27.5006 36.9795 26.2889 36.4799 25.0003 36.4799V36.4703ZM25.0003 24.9405C20.7593 24.9405 17.3069 28.3898 17.3069 32.627C17.3069 34.5967 18.057 36.3934 19.288 37.7578C20.1246 36.403 21.4037 35.375 22.9135 34.8849C21.8556 34.2027 21.1536 33.0113 21.1536 31.6662C21.1536 29.5428 22.875 27.823 25.0003 27.823C27.1256 27.823 28.847 29.5428 28.847 31.6662C28.847 33.0113 28.145 34.1931 27.0967 34.8849C28.0968 35.2116 29.0105 35.7593 29.7605 36.5279C30.1356 36.893 30.4529 37.3062 30.7222 37.7482C31.9435 36.3838 32.6936 34.5967 32.6936 32.6367C32.6936 28.3995 29.2412 24.9502 25.0002 24.9502L25.0003 24.9405ZM40.3871 32.627C40.3871 41.1012 33.4821 48 25.0003 48C16.5185 48 9.6135 41.1012 9.6135 32.627C9.6135 24.1528 16.5185 17.254 25.0003 17.254C33.4821 17.254 40.3871 24.1528 40.3871 32.627ZM34.617 32.627C34.617 27.3329 30.2991 23.0189 25.0003 23.0189C19.7014 23.0189 15.3835 27.3329 15.3835 32.627C15.3835 37.9211 19.7014 42.2351 25.0003 42.2351C30.2991 42.2351 34.617 37.9211 34.617 32.627ZM0.958124 24.9405C0.611921 24.9405 0.294585 25.1231 0.131054 25.4209C-0.0420475 25.7188 -0.0420475 26.0839 0.121437 26.3817L3.69887 32.6269L0.121437 38.872C-0.0420444 39.1698 -0.0420444 39.5349 0.131054 39.8328C0.294535 40.1306 0.611891 40.3132 0.958124 40.3132H9.50764C8.34403 37.9977 7.69009 35.3842 7.69009 32.6267C7.69009 29.8692 8.34403 27.2557 9.50764 24.9402L0.958124 24.9405ZM46.3011 32.627L49.8786 26.3819C50.042 26.084 50.042 25.7189 49.8689 25.4211C49.7055 25.1232 49.3881 24.9407 49.0419 24.9407H40.4924C41.656 27.2562 42.3099 29.8696 42.3099 32.6272C42.3099 35.3847 41.656 37.9981 40.4924 40.3137H49.0419C49.3881 40.3137 49.7054 40.1311 49.8689 39.8333C50.042 39.5354 50.042 39.1703 49.8786 38.8724L46.3011 32.627Z"/>
</svg>
