<svg width="24" height="16" viewBox="0 0 24 16" fill="none" xmlns="http://www.w3.org/2000/svg">
<path d="M9.45 11.4286L15.4185 8L9.45 4.57143V11.4286ZM22.744 2.48C22.8935 3.01714 22.997 3.73714 23.066 4.65143C23.1465 5.56571 23.181 6.35429 23.181 7.04L23.25 8C23.25 10.5029 23.066 12.3429 22.744 13.52C22.4565 14.5486 21.7895 15.2114 20.7545 15.4971C20.214 15.6457 19.225 15.7486 17.707 15.8171C16.212 15.8971 14.8435 15.9314 13.5785 15.9314L11.75 16C6.9315 16 3.93 15.8171 2.7455 15.4971C1.7105 15.2114 1.0435 14.5486 0.756 13.52C0.6065 12.9829 0.503 12.2629 0.434 11.3486C0.3535 10.4343 0.319 9.64572 0.319 8.96L0.25 8C0.25 5.49714 0.434 3.65714 0.756 2.48C1.0435 1.45143 1.7105 0.788572 2.7455 0.502857C3.286 0.354286 4.275 0.251428 5.793 0.182857C7.288 0.102857 8.6565 0.0685714 9.9215 0.0685714L11.75 0C16.5685 0 19.57 0.182857 20.7545 0.502857C21.7895 0.788572 22.4565 1.45143 22.744 2.48Z" fill="#1F3C88"/>
</svg>
